<svg xmlns="http://www.w3.org/2000/svg" fill="currentColor" viewBox="0 0 115 99">
  <path d="M50.26 98.75c-4.47 0-8.98-.17-13.43-.49-3.1-.22-6.35-.58-9.06-2.22-3.63-2.2-6-6.41-7.25-12.9-2.58-13.4-1.9-25.2 2.01-35.1 2.3-5.83 8.6-4.58 13.58-4.7 44.54-1.03 42.83-1 44.06-1 3.38 0 7.21.31 10.08 2.68 3.88 3.2 4.37 8.72 4.52 13.65l.57 17.99c.16 4.87.1 9.2-2.29 12.81-3.18 4.81-9.33 6.33-14.93 7.18-9.18 1.4-18.55 2.1-27.86 2.1zM24.18 48.69c-3.79 9.58-4.43 21.06-1.91 34.12 1.14 5.96 3.24 9.8 6.41 11.7 2.38 1.45 5.28 1.76 8.28 1.98 13.59 1 27.44.45 40.9-1.6 14.5-2.2 16.04-7.62 15.71-18.18L93 58.73c-.14-4.54-.57-9.6-3.88-12.34-2.43-2-5.89-2.28-8.95-2.28-1.16 0 .83-.03-44.02 1-5.17.12-10.16-1-11.97 3.58z"></path>
  <path d="M90.07 40.57h-.05a394.26 394.26 0 01-65.43-9.55.88.88 0 01-.47-1.44c5.63-6.52 14.57-9.97 25.85-9.97 16.36 0 33.33 7.31 38.92 14.14 1.75 2.13 2.44 4.19 2.05 6.1a.89.89 0 01-.87.72zM26.48 29.64c20.6 4.72 41.7 7.78 62.79 9.1-.03-1.17-.61-2.47-1.75-3.86-5.34-6.52-21.7-13.5-37.56-13.5-7.12 0-16.8 1.47-23.48 8.26z"></path>
  <path d="M65.6 23.34h-.34a.89.89 0 01.13-1.78c1.33.1 2.5-.74 3.02-2.14.56-1.47.34-3.64-1.9-5.33-2.67-2-7.3-2.08-9.78-.92-1.68.8-2.73 2.14-2.89 3.7a3.09 3.09 0 001.14 2.84.89.89 0 01-1.05 1.42 4.84 4.84 0 01-1.85-4.44c.21-2.16 1.67-4.08 3.9-5.12 3-1.41 8.38-1.3 11.59 1.1 3.04 2.28 3.25 5.4 2.5 7.37a4.86 4.86 0 01-4.48 3.3z"></path>
  <path d="M94.16 62.42a.89.89 0 01-.87-1.07c1.65-7.97 8.5-9.35 12.6-10.18.75-.15 1.4-.27 1.9-.43 2.49-.76 4.22-2.24 4.63-3.96.56-2.28-1.26-4.54-3.25-5.34-4.74-1.88-12.38 1.74-16.34 7.74a.89.89 0 01-1.48-.98c4.46-6.76 12.92-10.6 18.47-8.4 2.74 1.08 5.11 4.15 4.33 7.4-.81 3.36-4.36 4.78-5.84 5.23-.55.17-1.26.32-2.07.48-3.9.79-9.8 1.97-11.21 8.8a.88.88 0 01-.87.71z"></path>
  <path d="M19.87 62.42a.89.89 0 01-.87-.7c-1.42-7.03-5.96-7.8-8.82-8.43-3.67-.81-8.25-1.82-9.27-6.1-1.04-4.4 3.8-10.46 12.66-6.98a20.78 20.78 0 019.78 8 .89.89 0 01-1.49.96 19 19 0 00-8.93-7.31c-7.54-2.96-11 1.93-10.29 4.93.76 3.19 4.57 4.03 7.93 4.76 2.48.55 8.46 1.36 10.17 9.81a.89.89 0 01-.87 1.06z"></path>
  <path d="M19.45 38.05a10.93 10.93 0 01-5.57-14.24c1.5-3.6 4.94-6.25 5.35-9.84.16-1.42-.34-3.28-1.8-4.03a.89.89 0 11.8-1.58c1.9.96 3.04 3.35 2.76 5.81-.47 4.18-4.05 6.94-5.48 10.33-1.9 4.53.2 9.89 4.67 11.93a.89.89 0 01-.73 1.62z"></path>
  <path d="M19.87 28.48c-.83-3.2.77-6.03 2.33-8.77 2.04-3.6 4.15-7.33 1.38-12.4a10.47 10.47 0 00-6.75-5.09.89.89 0 01.4-1.73c3.32.76 6.27 3 7.9 5.98 3.25 5.92.79 10.27-1.39 14.11-1.5 2.66-2.8 4.96-2.15 7.45a.89.89 0 11-1.72.45z"></path>
  <path d="M86.36 92.9L72.39 78.92a.44.44 0 11.63-.63l13.97 13.97c.41.41-.22 1.04-.63.62z"></path>
  <path d="M90.49 88.24l-8.85-8.85a.44.44 0 11.63-.63l8.84 8.85a.44.44 0 11-.62.63z"></path>
  <path d="M91.15 78.12L87.03 74a.44.44 0 11.63-.63l4.12 4.12a.44.44 0 11-.63.63z"></path>
  <path d="M92.3 70.92a.44.44 0 01-.3-.13l-3.43-3.42a.44.44 0 11.63-.62l3.42 3.42a.44.44 0 01-.31.75z"></path>
  <path d="M92.39 64.38a.44.44 0 01-.32-.13l-2.73-2.73a.44.44 0 11.63-.63l2.73 2.73a.44.44 0 01-.31.76z"></path>
  <path d="M92.97 60.34a.44.44 0 01-.31-.13l-2.4-2.39a.44.44 0 11.63-.63l2.4 2.4a.44.44 0 01-.32.75z"></path>
  <path d="M80.03 93.66L68.85 82.47a.44.44 0 11.63-.62l11.18 11.18c.42.42-.22 1.04-.63.63z"></path>
  <path d="M72.07 94.64l-7.69-7.7a.44.44 0 11.63-.63l7.7 7.7a.44.44 0 01-.63.63z"></path>
  <path d="M63.22 93.65l-3.93-3.93a.44.44 0 11.63-.63l3.93 3.93a.44.44 0 11-.63.63z"></path>
  <path d="M57.42 95.7l-4.75-4.75a.44.44 0 11.63-.63l4.74 4.75a.44.44 0 11-.62.63z"></path>
  <path d="M52.86 96.07l-3.27-3.27a.44.44 0 11.63-.63l3.27 3.27a.44.44 0 11-.63.63z"></path>
  <path d="M46 96.14l-2.88-2.88a.44.44 0 11.62-.63l2.88 2.88a.44.44 0 11-.63.63z"></path>
  <path d="M40.67 97.1a.44.44 0 01-.31-.12l-2.64-2.64a.44.44 0 11.63-.63l2.64 2.64a.44.44 0 01-.32.76z"></path>
  <path d="M34.8 96.04l-2.16-2.16a.44.44 0 11.63-.63l2.16 2.16a.44.44 0 11-.63.63z"></path>
  <path d="M33.25 96.96a.44.44 0 010-.63l4.43-4.42a.44.44 0 11.63.63l-4.43 4.42a.44.44 0 01-.63 0z"></path>
  <path d="M39.42 98.04a.44.44 0 010-.63l4.77-4.78a.44.44 0 11.63.63l-4.78 4.78a.44.44 0 01-.62 0z"></path>
  <path d="M46.04 97.11a.44.44 0 010-.62l8.9-8.9a.44.44 0 11.63.63l-8.9 8.9a.44.44 0 01-.63 0z"></path>
  <path d="M52.51 97.27a.44.44 0 010-.63l13.66-13.65a.44.44 0 11.62.63L53.14 97.27a.44.44 0 01-.63 0z"></path>
  <path d="M63.46 95.42a.44.44 0 010-.63l12.5-12.5a.44.44 0 11.63.62L64.1 95.4a.44.44 0 01-.63 0z"></path>
  <path d="M75.48 94.5a.44.44 0 010-.63l8.8-8.8a.44.44 0 11.63.62l-8.8 8.8a.44.44 0 01-.63 0z"></path>
  <path d="M84.87 92.03a.44.44 0 010-.63l6.1-6.1c.4-.4 1.04.22.62.64l-6.09 6.09a.44.44 0 01-.63 0z"></path>
  <path d="M73.63 90.63l7.1-7.1a.44.44 0 11.63.63l-7.1 7.1c-.42.41-1.05-.21-.63-.63z"></path>
  <path d="M62.69 91.87a.44.44 0 010-.62L75.3 78.63a.44.44 0 11.63.63L63.31 91.87a.45.45 0 01-.62 0z"></path>
  <path d="M83.49 83.4a.44.44 0 010-.63l5.43-5.43a.44.44 0 11.63.63l-5.43 5.43a.44.44 0 01-.63 0z"></path>
  <path d="M84.57 76.31a.44.44 0 010-.63l6.32-6.32a.44.44 0 11.63.62l-6.32 6.33a.44.44 0 01-.63 0z"></path>
  <path d="M88.73 67.99a.44.44 0 010-.63l3.32-3.32a.44.44 0 11.63.63l-3.32 3.32a.44.44 0 01-.63 0z"></path>
  <path d="M89.35 62.1a.44.44 0 01-.31-.76l3-3a.44.44 0 11.63.63l-3 3.01a.44.44 0 01-.32.13z"></path>
  <path d="M88.73 76.16a.44.44 0 010-.63l3.72-3.73a.44.44 0 11.63.63l-3.72 3.72a.44.44 0 01-.63 0z"></path>
  <path d="M86.88 70.3a.44.44 0 010-.63l3.54-3.55a.44.44 0 11.63.63l-3.54 3.55a.44.44 0 01-.63 0z"></path>
  <path d="M88.88 63.37a.44.44 0 010-.63l2.08-2.08a.44.44 0 11.63.63l-2.08 2.08a.44.44 0 01-.63 0z"></path>
  <path d="M89.03 55.66a.44.44 0 010-.63l1.37-1.36a.44.44 0 11.63.63l-1.37 1.36a.44.44 0 01-.63 0z"></path>
  <path d="M44.23 68.1L34.13 58a.44.44 0 11.63-.63l10.1 10.1c.42.42-.22 1.03-.63.63z"></path>
  <path d="M49.56 63.53a.44.44 0 01-.3-.13l-9.42-9.42a.44.44 0 11.62-.62l9.42 9.4a.44.44 0 01-.32.77z"></path>
  <path d="M54.92 58.71l-6.84-6.84a.44.44 0 11.62-.63l6.84 6.84a.44.44 0 11-.62.63z"></path>
  <path d="M34.13 68.77a.44.44 0 010-.63l14.05-14.05a.44.44 0 11.63.63L34.76 68.77a.44.44 0 01-.63 0z"></path>
  <path d="M38.67 59.4a.44.44 0 01-.31-.76l7.95-7.96a.44.44 0 11.63.63l-7.95 7.95a.45.45 0 01-.32.13z"></path>
  <path d="M50.19 60.53a.44.44 0 010-.63l6.54-6.54a.44.44 0 11.63.63l-6.54 6.54a.45.45 0 01-.63 0z"></path>
  <path d="M33.5 64.55l5.23-5.23a.44.44 0 11.62.63l-5.22 5.23c-.42.4-1.05-.21-.63-.63z"></path>
  <path d="M41.74 70.04a.44.44 0 010-.63l5.49-5.5a.44.44 0 11.63.63l-5.5 5.5a.44.44 0 01-.62 0z"></path>
  <path d="M36.08 27.32a.45.45 0 01.17-.6 27.96 27.96 0 0123.9-1.44c.24.09.34.35.25.58a.44.44 0 01-.58.24 27.06 27.06 0 00-23.14 1.39.44.44 0 01-.6-.17z"></path>
  <path d="M56.67 25.9h-.06a.44.44 0 01-.38-.5l.25-1.84a.45.45 0 01.5-.38c.24.03.41.26.38.5l-.25 1.83a.44.44 0 01-.44.39z"></path>
  <path d="M52.66 25.15a.44.44 0 01-.44-.43l-.05-1.83c0-.24.18-.45.43-.46.26.04.45.2.46.44l.05 1.82c0 .25-.19.45-.43.46h-.02z"></path>
  <path d="M46.74 26.04l-.11-.01a.45.45 0 01-.33-.54c.19-.74.16-1.52-.07-2.25a.44.44 0 01.28-.55c.24-.07.49.05.56.29.28.88.32 1.82.1 2.72a.44.44 0 01-.43.34z"></path>
  <path d="M40.82 27.24l-.68-2.26a.44.44 0 01.3-.56c.23-.07.48.07.55.3l.68 2.26c.17.56-.68.82-.85.26z"></path>
  <path d="M58.48 51.08l-2.52-2.52a.44.44 0 11.63-.62l2.52 2.51c.41.42-.22 1.04-.63.63z"></path>
  <path d="M58.45 55.45a.45.45 0 01-.31-.13l-1.84-1.84a.44.44 0 11.63-.62l1.84 1.83a.44.44 0 01-.32.76z"></path>
  <path d="M55.95 55.99a.44.44 0 010-.63l2.54-2.55a.44.44 0 11.63.63L56.58 56a.44.44 0 01-.63 0z"></path>
  <path d="M56.8 51.29a.44.44 0 01-.31-.76l1.46-1.46a.44.44 0 01.63.63l-1.46 1.46a.45.45 0 01-.31.13z"></path>
  <path d="M59 56.4l-3.55-3.54a.44.44 0 11.63-.63l3.54 3.54a.44.44 0 11-.63.63z"></path>
  <path d="M58.48 54.11l-2.51-2.5a.44.44 0 11.62-.64l2.51 2.52c.42.42-.22 1.03-.62.62z"></path>
  <path d="M54.71 55.97a.45.45 0 01.03-.63l4.65-4.26-2.25-2.25a.44.44 0 11.63-.63l2.58 2.58a.45.45 0 01-.02.64l-5 4.58a.44.44 0 01-.62-.03z"></path>
</svg>
