<svg viewBox="0 0 410 105" fill="none" xmlns="http://www.w3.org/2000/svg">

<path opacity=".8" d="M352.6 53.8c1.6 3 4.6 5.7 7.5 7.7 2.3 1.6 4.8-1.3 4.1-4.3-.6-3 .1-8.3 1-13.5.9-4.3.7-6.2 3-10.8 1.4-2.7-.5-5.9-3-4.9-5 2-13 4.6-14.3 10-1.4 6-.9 10.7 1.7 15.8ZM389.4 52.7c-1-3.2-3.7-6.4-6.3-8.8-2-1.8-4.9.7-4.7 3.7a42 42 0 0 1-3.1 13.2c-1.4 4.1-1.6 6-4.6 10.2-1.7 2.4-.4 5.8 2.2 5.2 5.4-1.2 13.6-2.5 15.7-7.6 2.3-5.7 2.6-10.5.8-15.9Z" fill="#ACE1C6"></path><path d="M364.8 77.1c.1-3.9 10.6-22.8 16.8-33.7.1-.2.3-.2.5-.2 4.5 2.2 8.2 6.4 9.8 11.4 3.3 9.9-2.5 19.7-10.6 23a23.2 23.2 0 0 1-16.2-.2.4.4 0 0 1-.3-.3Zm17.3-33c-10.2 17.7-16.2 29.6-16.6 32.7 5.5 1.8 11 1.9 15.5 0a18 18 0 0 0 10.3-22c-1.6-4.7-5-8.7-9.2-10.8Z" fill="#1CAF63"></path><path d="M377 58.5v-.3c5.5-11.2 5.3-12.2 7.8-9.9 3.4 3.2 5.7 6.4 1.3 7.9a57 57 0 0 1-9 2.4v-.1Zm10.3-6.3c-1.1-2-3.5-4-4-4.1-.5-.3-1 .7-1.2 1.3l-4 8.5c2.6-.6 5.2-1.4 7.8-2.4 1.9-.6 2.5-1.4 1.4-3.3ZM377.7 60.1c3-1.2 6-2 9-2.8 4.4-1 3.7 6.4 2 8.2-1.6 1.7-2.4.7-11.5-3.9-.7-.3-.8-1 .5-1.5Zm11-1.5c-.4-.8-1-.8-1.9-.6-3 .7-6 1.6-8.8 2.7l-.5.3c9 4.6 9.5 5.2 10.6 4 1.2-1.3 1.5-5 .7-6.4ZM375.6 62.6c.5-.6 1.3 0 1.7.3l.3.1c7.6 3.7 10.4 4.2 8.6 7.4-1.4 2.3-4.5 4.4-6.2 3.8-.5-.2-1-.8-1.4-1.8-.5-1-3.6-8.9-3-9.8Zm10.3 5.8c-.2-.9-.7-1-8.6-4.7-.2-.1-1-.7-1.1-.6a55 55 0 0 0 3 9c.4.9.7 1.3 1.1 1.4.4.2.8.1 1.5-.2 2.5-1 4.5-3.7 4.1-5ZM368.6 73.2c.2-.9 3.4-8 4.3-9 .2-.4.5-.6.9-.6.6.2.8 1.2 1.2 2.4.9 2.5 1.6 5.2 2.3 7.8.4 1.4 0 2.3-1.6 2.7-2.8.6-7.8.2-7.1-3.3Zm5-8.9-.2.2c-.8 1.2-4 8.1-4.1 8.8-.6 2.8 4 3 6.3 2.5 1.2-.3 1.3-.7 1-1.8-.2-1-2.6-9.5-3-9.7Z" fill="#1CAF63"></path><path d="m382.4 50.4 1-2.3c.1-.2.4 0 .4.1l-1.1 2.3c-.1.3-.4 0-.3-.1ZM383.7 50.9l.9-2c0-.2.4 0 .3.1l-1 2c0 .3-.3 0-.2-.1ZM384.7 51.7l1-2c0-.2.3 0 .2.2l-1 2c0 .2-.3 0-.2-.2ZM385.7 53l.9-2c0-.2.4 0 .3.1L386 53h-.3ZM386.6 53.7l.7-1.3c0-.2.4 0 .3.1L387 54h-.3v-.2ZM387.1 54.5l.5-1c.1-.3.4-.1.3.1l-.5 1.1c0 .2-.4 0-.3-.2Z" fill="#1CAF63"></path><path d="m382.1 49.3 2 1c.1.1 0 .4-.2.3l-2-1c-.2-.1 0-.4.2-.3ZM383.1 48.7l2 1c.1 0 0 .4-.2.3l-2-1c-.1-.1 0-.5.2-.3ZM384.2 51c.1-.1.4 0 .6.2.2.1 0 .4-.1.3-.2-.1-.6-.2-.5-.4ZM385.1 50.7l1.5.8c.2 0 0 .4-.1.3L385 51c-.2-.1 0-.4.1-.3ZM385.7 52l1.6.7c.2.2 0 .5-.2.4l-1.5-.9c-.2 0 0-.4.1-.3ZM386.6 53.3l.8.4c.3.1.1.5-.1.3l-.8-.4c-.2-.1 0-.4.1-.3ZM386.9 51.9l.7.4c.2 0 0 .4-.1.3l-.8-.4c-.2-.1 0-.4.2-.3ZM385.1 59l.5-1c.1-.2.4 0 .3.2l-.5 1c0 .1-.1.2-.2.1 0 0-.1-.1 0-.2ZM385.9 59.5l.7-1.7c.1-.2.5 0 .4.2l-.8 1.7c-.1.2-.4 0-.3-.2ZM387.2 59.8l.9-2c0-.2.4 0 .3.2l-1 2c0 .1-.3 0-.2-.2ZM388.2 61.1l.9-1.9c0-.2.4 0 .3.2l-1 1.9s0 .1-.2 0v-.2ZM388.5 62.8l.7-1.6c.1-.2.4 0 .3.2l-.7 1.5c-.1.3-.4 0-.3-.1ZM388.5 63.9l.5-1.3c.1-.2.5 0 .4.2l-.6 1.3c-.1.2-.4 0-.3-.2ZM383.8 59.6l.6-1.3c0-.1.1-.2.2-.1 0 0 .1.2 0 .2l-.5 1.2c0 .2-.2.1-.3 0Z" fill="#1CAF63"></path><path d="m383.5 58.7 1.8 1c.2.1.1.4-.1.3l-1.8-1c-.2 0 0-.4.1-.3ZM385.7 58.4l1.8 1c.2 0 0 .4-.1.3l-1.9-1c-.2-.1 0-.5.2-.3ZM387.8 58.7l1 .5c.1.2 0 .5-.2.4l-1-.5c-.2-.2 0-.5.2-.4ZM388.5 60.3l.8.4c.2.1 0 .5-.2.3l-.7-.4c-.3 0-.1-.4.1-.3ZM388.5 61.3l1 .5c.1 0 0 .4-.2.3l-1-.5c-.2-.1 0-.5.2-.3ZM388.5 62.7l.8.5c.2 0 0 .4-.1.3l-.9-.5c-.2 0 0-.4.2-.3ZM384.1 68.4l.7-1.4c0-.2.4 0 .3.2l-.6 1.3c-.1.2-.4 0-.4-.1ZM383.1 67.6l.6-1.2c0-.2.4 0 .3.2l-.5 1.2c-.1.2-.5 0-.4-.2ZM382 66.8l.4-.9c.1-.2.4 0 .3.2l-.4.9c0 .2-.4 0-.3-.2ZM381 66.5l.5-1.1c0-.2.4 0 .3.2l-.5 1c-.1.3-.4.1-.3 0ZM379.8 66l.4-1c.1-.2.4 0 .3.2l-.4 1h-.2c-.1 0-.2-.1-.1-.2ZM378.4 65.6l.5-1c0-.3.4-.1.3 0l-.5 1.2c-.1.2-.4 0-.3-.2ZM377.2 64.7l.4-1c.1-.1.4 0 .3.3l-.4.9s-.1.1-.2 0c-.1 0-.2 0-.1-.2ZM376.4 64l.4-.8c0-.2.4 0 .3.2l-.4.8c0 .1-.1.1-.2 0-.1 0-.2 0-.1-.2ZM384.6 69l.6-1.2c0-.2.4 0 .3.2L385 69c-.1.3-.4 0-.4-.1ZM385.5 69.5l.3-.7c0-.2.4 0 .3.2l-.3.7c-.1.2-.4 0-.3-.2Z" fill="#1CAF63"></path><path d="m376.4 63.5 2.7 1.5c.2 0 .1.4-.1.3l-2.7-1.5c-.2 0 0-.4.1-.3ZM380 65.5l1.6.8c.2.1 0 .5-.2.3l-1.5-.8c-.2-.1-.1-.4.1-.3ZM383 66.8l1.4.8c.2 0 0 .4-.2.3l-1.3-.7c-.2-.2 0-.5.1-.4ZM384.7 68.3l1.2.7c.2 0 0 .4-.2.3l-1.1-.6c-.2-.2 0-.5.1-.4ZM373 66l.8-1.4c0-.2.4 0 .3.1l-.7 1.5c-.1.2-.4 0-.3-.1ZM373.8 67.4l.6-1.3c0-.2.4 0 .3.2l-.6 1.3c0 .2-.4 0-.3-.2ZM374.1 69.2l.8-1.6c0-.2.4 0 .3.2l-.8 1.6c0 .2-.4 0-.3-.2ZM374.4 70.6l.8-1.7c0-.2.4 0 .3.2l-.8 1.6c0 .1-.2.2-.3.1v-.2ZM375 72.2l.7-1.5c.1-.2.5 0 .4.1l-.8 1.6h-.2s-.1-.1 0-.2ZM375.4 73.4l.5-1.1c.1-.2.4 0 .3.1l-.5 1.2c0 .1-.2.1-.2 0-.1 0-.2 0-.1-.2ZM375.8 74.8l.6-1.2c0-.2.4 0 .3.2l-.6 1.2c0 .2-.4 0-.3-.2ZM376.3 75.2l.3-.7c.1-.2.4 0 .4.2l-.4.6c0 .1 0 .2-.2.1 0 0-.1-.1 0-.2Z" fill="#1CAF63"></path><path d="m373 65.4 2 1c.2.2 0 .5-.2.4l-2-1.1c-.2-.1 0-.4.1-.3ZM374.1 68l1.4.9c.2 0 .1.4-.1.3l-1.4-.8c-.3-.1-.1-.4.1-.3ZM374.5 69.9l1.4.7c.2.1 0 .5-.1.3l-1.4-.7c-.2-.1-.1-.4.1-.3ZM375.3 71.8l1.1.6c.2.1 0 .4-.1.3l-1.2-.6c-.2-.1 0-.4.2-.3ZM375.7 73l1 .5c.3.1.2.4 0 .3l-1.1-.6c-.2 0 0-.4.1-.3ZM376.1 74.2l1 .5c.2.1 0 .4-.2.3l-1-.5c-.1-.1 0-.4.2-.3ZM381.4 54.7v-.1l1-2c0-.2.3 0 .2.2l-.9 2H381.4ZM382.2 55.1l.8-2h.3v.2l-.8 1.9H382.2Z" fill="#1CAF63"></path><path d="M381.5 53.5v-.1c0-.1.1-.2.2-.1l2 1v.3s0 .1-.2 0l-2-1v-.1ZM383.5 60.6l2.4 1.3s.1.2 0 .2c0 .1 0 .2-.2.1l-2.4-1.3c-.2 0 0-.4.2-.3ZM383.2 61.7v-.1c0-.1.1-.1.2 0l1.5.7c.1 0 .2.2.1.3h-.2l-1.5-.8h-.1Z" fill="#1CAF63"></path><path d="M384 62.6v-.2l1-1.8c0-.2.3 0 .2.2l-.8 1.8s-.2.1-.2 0h-.1ZM379.5 68.1l2.4 1.3v.3h-.2l-2.4-1.3c-.2 0 0-.4.2-.3ZM379.8 69.8l1.3.7c.2.1 0 .4-.1.3l-1.4-.7c-.2-.1 0-.4.2-.3Z" fill="#1CAF63"></path><path d="m380 70.2.8-1.9c0-.2.4 0 .3.2l-.9 1.8c0 .1-.1.2-.2.1 0 0-.1-.1 0-.2ZM381 70.6l.4-.8c0-.2.4 0 .3.2l-.3.7-.3.1s-.1-.2 0-.2ZM373 73.3l-.7-2.2c0-.3.3-.4.3-.2l.8 2.3-.1.2-.3-.1ZM372.3 73.7l-.5-1.7c-.1-.2.2-.3.3-.1l.5 1.7v.2l-.3-.1Z" fill="#1CAF63"></path><path d="m371.3 72.6 2-.7c.2 0 .3.3.1.4l-2 .6c-.2 0-.3-.3 0-.3ZM350.7 55.4c-8-11.8 0-30.5 20-29.2l.3.3c.9 3.7-4.3 24.7-7.5 37l-.4.2c-8.8-1.5-13.1-9.3-12.4-8.3ZM370.4 27c-5.8-.3-11.1 1.1-15 4.1a18 18 0 0 0 7.5 32c5.2-20 7.9-33 7.5-36Z" fill="#1CAF63"></path><path d="M354.1 54.6c.1-1 1-1.7 1.8-2.3 1.4-1 8.5-6 8.2-4.4-2 10.8-2 11.6-2.9 12-.5.3-1.1 0-1.9-.3-1.8-1-5.3-2.8-5.2-5Zm9.2-6.1a61 61 0 0 0-7 4.4c-.7.5-1.4 1-1.5 1.7 0 1.8 3.3 3.6 4.8 4.3.6.3 1 .6 1.3.4.6-.3.9-2.8 2.4-10.8ZM351.4 49.9c-1.3-2.8-1.5-7.9 2.5-7 11 2.1 11.9 1.4 7.2 4.7a60.6 60.6 0 0 1-6 3.7c-1.6.8-2.8.6-3.7-1.4Zm11.6-4.6-9.3-1.8c-4-.8-2.4 7.6 0 7.6a46 46 0 0 0 9.3-5.8ZM352.3 40.9c-.4-.6-.5-1.3-.2-2.3.7-2.6 3.2-5.5 5-5.3.7 0 1.3.7 1.8 1.3.7.9 5.8 7.6 5.4 8.6-.3.8-1.2.5-1.7.3-.4-.2-1.6-.3-2-.4-6.8-1.2-7.7-1.2-8.3-2.2Zm9.1-1.6c-3.7-5.6-4.3-6-5.8-4.7a8.4 8.4 0 0 0-2.8 4.2c-.2.8-.2 1.3 0 1.7l-.3.2.3-.2c.6.8 1.3.7 9.6 2.2.2 0 1 .4 1.2.3.1-.2-2-3.5-2.2-3.7ZM359.7 33c-.7-1.3-.7-2.2.9-3a10 10 0 0 1 4.6-1.2c4.2 0 3 3.5 2.6 6.4-.8 4-.8 4.8-1.3 6-.3.8-1 .9-1.7 0-.6-1-2.6-3.9-5-8.2Zm5.5-3.5c-1.5 0-3 .4-4.3 1-1.2.7-1 1.3-.6 2.1.2.4 5 8.5 5.4 8.5 0 0 .3-.1.8-2.7 1-5.9 2.4-9-1.3-9Z" fill="#1CAF63"></path><path d="m362.4 30.8.2-1c0-.1.4 0 .3.2l-.2.9c0 .2-.3.1-.3-.1ZM363.6 30.7l.2-1c0-.2.4-.2.4 0l-.2 1c0 .2-.2.2-.2.2l-.2-.2ZM364.7 30.8l.2-1.3c0-.3.4-.2.4 0L365 31s-.1.1-.2 0c-.1 0-.2 0-.1-.1ZM365.8 30.8l.3-1.1c0-.2.3-.2.3 0l-.2 1.2s-.1.1-.2 0a.2.2 0 0 1-.2-.1ZM366.7 32l.4-1.8c0-.2.4-.1.3 0l-.3 2c-.1.1-.4 0-.4-.2ZM361.2 31.2l.3-1.2c0-.2.4-.2.3 0l-.2 1.3c0 .2-.4.2-.4 0ZM360.1 31.7l.2-1c0-.2.4-.2.3 0l-.1 1c0 .3-.4.2-.4 0ZM367 34.2l.3-1.4c0-.2.4-.1.4.1l-.3 1.4-.2.1a.2.2 0 0 1-.2-.2Z" fill="#1CAF63"></path><path d="m360 31 1.5.4c.2 0 .2.4 0 .4l-1.6-.4c-.3 0-.2-.4 0-.3ZM361.5 30.3l1.8.3.2.2-.2.2-1.9-.4c-.2 0-.1-.4.1-.3ZM363.8 30l1.8.4c.2 0 .1.4 0 .3l-1.9-.4c-.2 0-.2-.4 0-.3ZM366.2 30.4l.9.2c.2 0 .2.4 0 .3l-1-.2c-.2 0-.1-.3 0-.3ZM356.6 35.3l.3-1.5c0-.2.4-.1.4 0l-.3 1.6s-.1.2-.2.1c-.1 0-.2 0-.2-.2ZM357.6 36l.2-1.4c0-.3.4-.2.3 0L358 36s-.1.2-.2.1h-.1ZM358.5 37.1l.3-1.6c0-.2.4-.2.3 0l-.3 1.7-.2.1-.1-.2ZM359.1 38.1l.3-1.5c0-.3.4-.2.4 0l-.3 1.6-.2.1-.2-.2ZM359.9 39.2l.3-1.7c0-.2.4-.1.4.1l-.4 1.6c0 .1 0 .2-.2.2l-.1-.2ZM360.7 40.2l.3-1.6c0-.2.4-.2.4 0l-.3 1.7-.2.1-.2-.2ZM361.5 41.4l.3-1.7c0-.2.4-.1.4.1l-.4 1.7c0 .1 0 .2-.2.2l-.1-.3ZM362.4 42l.2-1c0-.2.4 0 .3.1l-.2 1c0 .3-.4.2-.3 0ZM363 42.8v-.7c.1-.2.5-.1.4.1l-.1.7-.2.1c-.1 0-.2 0-.2-.2ZM355.7 35.2l.2-1.2c0-.2.4-.2.4 0l-.3 1.2c0 .1 0 .2-.2.2l-.1-.2ZM355 35.8v-.1l.2-1c0-.3.3-.2.3 0l-.2 1c0 .2-.2.2-.3 0Z" fill="#1CAF63"></path><path d="M354.4 35h.2l1.4.2c.2 0 .2.4 0 .4l-1.5-.3s-.1-.1 0-.2ZM355.4 34.3l2 .4c.2 0 .1.4 0 .3l-2-.4c-.3 0-.2-.4 0-.3ZM357.5 35.6l1.7.3.2.2-.2.2-1.8-.4c-.2 0-.1-.4 0-.3ZM358.2 36.8v-.1l.2-.2 1.5.4c.2 0 .2.3 0 .3l-1.7-.4ZM359.7 38l1.4.3.1.3s-.1.1-.2 0l-1.4-.2c-.2 0-.1-.4 0-.3ZM360.4 39l1.4.3c.3 0 .2.4 0 .3l-1.5-.3c-.2 0-.2-.4 0-.3ZM361.2 40.1l1.2.2c.2 0 .1.4 0 .4l-1.2-.3c-.3 0-.2-.3 0-.3ZM361.8 41l1.3.2c.2 0 .2.4 0 .4l-1.4-.3c-.2 0-.2-.4 0-.4ZM362.7 41.8l1 .2c.2 0 .1.4-.1.4l-1-.2c-.2 0-.1-.4.1-.4ZM358.4 45.8l.3-1.6.2-.2.2.2-.4 1.7-.2.1-.1-.2ZM359.4 46l.3-1.7.2-.1c.1 0 .2.1.1.2l-.3 1.7c0 .1-.1.2-.2.1 0 0-.2 0-.1-.2ZM360.5 45.9l.3-1.1c0-.3.3-.2.3 0L361 46l-.2.2-.2-.2ZM361.5 46l.3-1.2c0-.2.4-.1.3.1l-.2 1.2s-.1.2-.2.1c-.1 0-.2 0-.2-.2ZM357.2 45.5l.2-1.4.2-.2.2.3-.3 1.4-.2.1a.2.2 0 0 1-.1-.2ZM355.7 45l.2-1.2c0-.2.4-.1.4.1L356 45c0 .1 0 .2-.2.2l-.1-.2ZM354.4 44.7l.3-1.3c0-.2.4-.1.3.1l-.2 1.3-.2.1-.2-.2ZM353.3 44.6l.3-1.2c0-.2.4-.1.3.1l-.2 1.2-.2.2-.2-.3ZM352.1 44.6l.3-1.3c0-.2.4-.2.3 0l-.2 1.4-.2.1-.2-.2Z" fill="#1CAF63"></path><path d="m351.8 43.7 2.3.5c.2 0 .1.4 0 .4l-2.4-.5c-.2 0-.2-.4 0-.4ZM354.5 44l1.5.2.2.3s-.1.1-.2 0l-1.6-.2c-.2 0-.1-.4.1-.4ZM356.8 44.7l2.1.4a.2.2 0 0 1 0 .3l-2.1-.4c-.3 0-.2-.4 0-.3ZM359.3 45.5l1.2.3c.2 0 .1.4-.1.3l-1.2-.2c-.2 0-.2-.4 0-.4ZM360.7 45.2l1.2.2c.3 0 .2.4 0 .4l-1.3-.3c-.2 0-.2-.4 0-.3ZM362.7 49.7l.2-1.4c0-.2.4-.2.4 0l-.3 1.4c0 .3-.4.2-.3 0ZM361.4 50.3l.2-1.4c0-.3.4-.2.4 0l-.3 1.5c0 .2-.4.1-.3-.1ZM360.2 50.8l.3-1.2c0-.2.4-.1.3 0l-.2 1.3c0 .1-.1.2-.2.1-.1 0-.2 0-.2-.2ZM359 51.9l.2-1.4c0-.2.4-.2.3 0l-.2 1.4c0 .3-.4.2-.4 0ZM357.7 52.9l.3-1.3c0-.2.4-.2.4 0L358 53c0 .2-.4.1-.4-.1ZM356 54l.4-1.7c0-.2.4-.2.4 0l-.4 1.8c0 .2-.4.1-.3-.1ZM354.8 55l.3-1.6c0-.2.4-.2.4 0l-.3 1.6c0 .2-.4.1-.4 0Z" fill="#1CAF63"></path><path d="m354.8 54.2 1.3.2c.2 0 .1.4-.1.4l-1.2-.3c-.3 0-.2-.4 0-.3ZM355.7 53l1.8.4c.2 0 .1.3-.1.3l-1.7-.4c-.3 0-.2-.3 0-.3ZM357 51.8l2.3.4c.2 0 .1.4-.1.4L357 52c-.3 0-.2-.4 0-.3ZM358.8 50.8l1.5.3c.2 0 .1.4 0 .4l-1.6-.4c-.2 0-.2-.3 0-.3ZM360.6 50l1.4.2c.2 0 .2.4 0 .3l-1.5-.2c-.2-.1-.2-.4 0-.4ZM362.2 49.2l1.2.3c.2 0 .2.4 0 .3l-1.3-.2c-.2 0-.1-.4.1-.4ZM364.9 37.5l-1.8-2.7c-.1-.2.1-.4.3-.2l1.8 2.7c.1.2-.2.4-.3.2ZM365.9 36.8l-1.1-1.6c-.1-.2.1-.4.3-.2l1 1.6v.3h-.2Z" fill="#1CAF63"></path><path d="m364.4 35.8 1.2-.8h.3v.3l-1.3.8c-.2.2-.4-.1-.2-.3ZM362.8 35.2l1-.7c.2 0 .4.2.2.3l-1 .7c-.2.1-.4-.1-.2-.3ZM360 56.3l.5-2.6c0-.3.4-.2.3 0l-.5 2.7s0 .1-.2 0l-.1-.1ZM358.6 57c-.1-.1.3-2 .3-2.2 0-.2.4-.2.4 0l-.4 2.1c0 .1-.1.2-.2.1h-.1Z" fill="#1CAF63"></path><path d="m358.3 55.7 2 .4.1.2c0 .1-.1.2-.2.1l-2-.4c-.2 0-.2-.4 0-.3ZM354.6 47.7l.3-1.3c0-.2.4-.1.3.1l-.2 1.3s-.1.2-.2.1c-.1 0-.2 0-.2-.2ZM355.5 48l.2-1.2c0-.3.4-.2.3 0l-.2 1.3-.2.2c-.1 0-.2-.1-.1-.2Z" fill="#1CAF63"></path><path d="m354.3 47 1.9.3c.2 0 .2.4 0 .3l-2-.3c-.2 0 0-.4.1-.4ZM355.8 39.2l.3-1.5c0-.2.4-.2.4 0l-.3 1.5-.2.2-.2-.2ZM356.8 39.9l.3-1.8c0-.2.4-.2.4 0L357 40c0 .1 0 .2-.2.2l-.1-.2Z" fill="#1CAF63"></path><path d="m355.4 38.4 2.4.5c.1 0 .2 0 .2.2l-.2.1-2.4-.5c-.2 0-.2-.4 0-.3Z" fill="#1CAF63"></path></svg>