<svg viewBox="0 0 170 244" fill="none" xmlns="http://www.w3.org/2000/svg">
  <path d="M107 47c-1.7-1.7-3-3.8-3.9-6-.1-.4 0-.7.3-.8.3-.1.6 0 .7.3 3.3 8.7 12.8 12.5 19.2 10.1a8.5 8.5 0 005-4.5c1-2.7.4-6.1-1.7-8.2a7.6 7.6 0 00-8.3-1.3c-.2.1-.6 0-.7-.3-.1-.3 0-.6.2-.7 3.1-1.5 7-.9 9.5 1.5a8.6 8.6 0 012 9.5c-1 2.3-3 4.1-5.7 5-5.5 2.1-12.1 0-16.6-4.6z" fill="#ACE1C6"/>
  <path d="M106.5 25.8c2.6-4 6.6-6.8 10.9-7.3 4.7-.6 9.5 1.8 11.6 5.7 2.2 4.2.7 9.9-3.3 12-.3.2-.6.1-.7-.1-.2-.3 0-.6.2-.8 3.4-1.9 4.7-7 2.8-10.6a10.6 10.6 0 00-10.5-5c-3.9.4-7.6 3-10 6.7-.2.2-.5.3-.8.1a.6.6 0 01-.2-.7z" fill="#ACE1C6"/>
  <path d="M88.4 18.7c1.4-3.5 4.2-6.4 7.5-7.8 3.6-1.4 7.8-1.2 10.9.8 3.3 2 5.3 5.9 5 9.6 0 .3-.4.5-.7.5a.6.6 0 01-.5-.6 9.3 9.3 0 00-4.4-8.6 11 11 0 00-9.8-.6c-3.1 1.3-5.6 3.9-7 7.2-.1.3-.5.4-.7.3a.6.6 0 01-.3-.8z" fill="#ACE1C6"/>
  <path d="M62.2 35.6c-.7-.9-1.4-1.8-1.9-2.8-1.2-2.4-2-6.4.8-12 3-5.7 8-9.9 13.6-11 6.3-1.3 13 1.4 16 6.4.3.3.2.6 0 .8-.4.1-.7 0-.9-.2a14.3 14.3 0 00-14.8-6c-5.3 1.2-10.1 5-13 10.5-2 4.1-2.2 8-.7 11a10 10 0 006.9 5.3c4 .8 8.2-1.2 10.1-4.8.2-.2.5-.3.8-.2.3.2.4.5.2.8A11 11 0 0168 38.7a11 11 0 01-5.8-3.1z" fill="#ACE1C6"/>
  <path d="M79.3 36.7a6.2 6.2 0 01-1.5-6.5c.2-.3.5-.5.8-.3.3 0 .4.4.3.7-.9 2 .1 4.8 2.2 6.1 1.9 1.3 4.6 1.4 7 .4 2-.8 4-2.4 5.7-4.8.2-.2.6-.3.8 0 .3.1.3.5.1.7-1.8 2.5-4 4.2-6.2 5.1a8.9 8.9 0 01-8-.4l-1.2-1z" fill="#ACE1C6"/>
  <path d="M94.4 44.7a10 10 0 01-2.6-9.5c.1-.3.4-.5.7-.4.3.1.5.4.4.7a9 9 0 003.3 9.3 9 9 0 0010 .3c.2-.2.5-.1.7.1.1.3 0 .6-.2.8a10 10 0 01-12.3-1.3z" fill="#ACE1C6"/>
  <path d="M77.8 9.4c1.4-5.3 6.6-9.2 12-9 5.5.1 10.5 4.3 11.7 9.6 0 .3-.1.6-.4.7a.6.6 0 01-.7-.4c-1-4.8-5.7-8.7-10.6-8.8-4.9-.2-9.7 3.4-11 8.2 0 .3-.3.4-.6.3a.6.6 0 01-.4-.6z" fill="#ACE1C6"/>
  <path d="M93.5 74.2a28 28 0 0117.9-24.8c.3-.2.6 0 .7.3.1.3 0 .6-.3.7a26.9 26.9 0 00-17.2 23.9c0 .3-.3.5-.6.5a.6.6 0 01-.5-.6z" fill="#ACE1C6"/>
  <path d="M76.3 69.8a57.4 57.4 0 001.9-25.3c-.7-2.9-2-5.3-3.9-7-.3-.3-.2-.6 0-.8.2-.3.5-.3.8 0 2 1.8 3.4 4.4 4.2 7.5 1.8 7 .2 18.4-2 26-.1.6-1.2.3-1-.4z" fill="#ACE1C6"/>
  <path d="M91.4 54.9c-1.5-1.5-1-3.6-.2-5.4.9-2 1.9-3.7 3-5.5.2-.2.6-.3.8-.1.3.2.4.5.2.8a32.2 32.2 0 00-3 5.2c-.6 1.5-1.1 3.4.2 4.4 1 .7 2.7-.1 3.6-.7 2.8-1.8 5.2-4.2 7-7.1 0-.3.4-.4.7-.2.3.2.3.5.2.8-1.8 3-4.3 5.6-7.3 7.5-2 1.2-3.6 1.4-4.9.6l-.3-.3z" fill="#ACE1C6"/>
  <path d="M82.8 44.2l-.8-5.8c0-.3.1-.6.4-.6.3 0 .6.2.7.5l.8 5.7c.3 1.4.6 2.7 1.7 2.9.7.1 1.4-.4 2.3-1.4 1.4-1.7 2.5-3.7 3.4-5.8 0-.3.4-.4.7-.3.3.1.4.5.3.7-.9 2.2-2 4.3-3.5 6.1-1.2 1.4-2.3 2-3.4 1.8-1.7-.3-2.3-2.1-2.6-3.8z" fill="#ACE1C6"/>
  <path d="M77.1 72.6c-.9-.9-1.1-1.8-.7-2.6 1-1.8 4.7-2.2 9.7-1 3.6.7 6.3 1.8 7.6 3.2.8.9 1 1.9.6 2.7-.9 1.7-4.6 2-9.6 1-3.6-.8-6.3-2-7.6-3.3zm15.8.4a14.9 14.9 0 00-7-3c-5.4-1.2-8-.3-8.5.5-.2.4.1 1 .5 1.3 1.2 1.2 3.7 2.3 7 3 5.4 1.2 10.2.5 8-1.8z" fill="#ACE1C6"/>
  <path d="M65.6 42.8c-1.2-2.2-1.2-4.3-.1-5.8.2-.2.5-.3.8 0 .2.1.3.5 0 .7-.8 1.1-.7 2.8.3 4.5a8.8 8.8 0 0012 3.2.6.6 0 01.7 1 10 10 0 01-13.7-3.6z" fill="#ACE1C6"/>
  <path d="M102 59c-.6-.6-1.9-2-1.1-2.5.2-.2.6-.1.7.2 1.8 2.9 5.3 4.7 8.7 4.4 4-.3 7.5-3.5 9.6-8.8.1-.3.5-.5.7-.3.3 0 .5.4.4.7-3.1 7.8-8 9.3-10.6 9.5-3 .2-6.2-1-8.3-3.2z" fill="#ACE1C6"/>
  <path d="M115.8 45.6l-.9-1a.6.6 0 11.8-.7l1 1a.6.6 0 11-.9.7z" fill="#ACE1C6"/>
  <path d="M120.2 29.7l-.2-.4c0-.3.2-.5.5-.6h.5c.3-.1.6.1.6.4 0 .3-.1.6-.4.6l-.6.1-.4-.1z" fill="#ACE1C6"/>
  <path d="M111 33.3v-.1a.6.6 0 01.5-.9h.3c.3.1.5.4.4.7 0 .2-.3.4-.6.5l-.5-.2z" fill="#ACE1C6"/>
  <path d="M97.8 38.6h-.1v-.1l-.2-.2a.6.6 0 01.2-.8c.2-.2.6-.1.7.1l.2.2c.1.3.1.7-.2.8-.2.2-.5.2-.6 0z" fill="#ACE1C6"/>
  <path d="M100.6 31.4v-.2h-.1a.6.6 0 111-.5v.1a.6.6 0 01-.9.6z" fill="#ACE1C6"/>
  <path d="M101.3 23.6l-.2-.4c0-.3.2-.6.5-.6h.2c.3 0 .5.3.5.6s-.2.5-.5.5h-.1l-.4-.1z" fill="#ACE1C6"/>
  <path d="M92.1 23v-.2c.2-.3.5-.4.8-.3.3.1.4.4.3.7l-.5-.2.5.3-.6-.2-.5-.2z" fill="#ACE1C6"/>
  <path d="M83.6 34.2a.6.6 0 01-.2-.4h.6-.6v-.2c0-.3.3-.5.6-.5s.6.2.5.6H84h.5c0 .4-.2.6-.5.6l-.4-.1z" fill="#ACE1C6"/>
  <path d="M84.9 26.7a.6.6 0 010-.8c.2-.2.5-.2.8 0 .2.2.2.6 0 .8-.3.2-.6.2-.8 0z" fill="#ACE1C6"/>
  <path d="M82 18.9a.6.6 0 01.2-1h.2c.3-.1.6 0 .7.3 0 .3 0 .6-.4.7l-.2.1-.6-.1z" fill="#ACE1C6"/>
  <path d="M73.4 28.3a.6.6 0 11.8-.8c.1.2.1.6 0 .8-.3.2-.6.3-.8 0z" fill="#ACE1C6"/>
  <path d="M69.2 35.3L69 35c0-.3.3-.6.6-.6s.5.3.5.6-.2.6-.5.6c-.2 0-.3 0-.4-.2z" fill="#ACE1C6"/>
  <path d="M96.2 58.6c-.2-.2-.2-.5 0-.7a.6.6 0 01.8.7c-.2.2-.6.3-.8 0z" fill="#ACE1C6"/>
  <path d="M95.5 50.5a.6.6 0 11.8-.8c.1.2.2.6 0 .8-.3.2-.6.2-.8 0z" fill="#ACE1C6"/>
  <path d="M74.8 16a.5.5 0 010-.6v-.1c0-.3.4-.4.7-.3.3 0 .4.4.3.7 0 .3-.4.5-.7.4l-.3-.2z" fill="#ACE1C6"/>
  <path d="M76.6 24a.6.6 0 11.8-.8c.1.2.2.6 0 .9-.3.2-.6.2-.8 0z" fill="#ACE1C6"/>
  <path d="M111.3 26.6a.6.6 0 01-.2-.6c.1-.3.5-.5.8-.4.2 0 .4.3.3.6v.1a.6.6 0 01-1 .3z" fill="#ACE1C6"/>
  <path d="M124.2 45.8v-.2c-.2-.3 0-.6.2-.7l.3-.1c.3-.1.6 0 .7.3.1.3 0 .6-.3.7l-.3.1c-.2.1-.4 0-.6-.1z" fill="#ACE1C6"/>
  <path d="M88.8 31c0-.2.3-.5.6-.5s.5.2.5.5h-.5.5-1.1z" fill="#ACE1C6"/>
  <path d="M75 44.9v-.2c-.2-.3 0-.7.3-.8.3 0 .6 0 .8.3 0 .3 0 .6-.3.7h-.1c-.3.2-.5.1-.6 0z" fill="#ACE1C6"/>
  <path d="M69.4 43.6c-.2-.3-.2-.6 0-.8.3-.3.7-.3.9 0 .2.2.2.5 0 .7-.3.2-.6.3-.9 0z" fill="#ACE1C6"/>
  <path d="M107 57.7c-.2-.3-.3-.6 0-.8a.6.6 0 01.8.7c-.2.3-.6.3-.8 0z" fill="#ACE1C6"/>
  <path d="M113.1 58v-.2l-.3-.3a.6.6 0 111-.6l.2.3a.6.6 0 01-.9.7z" fill="#ACE1C6"/>
  <path d="M112.3 54.6l-.2-.5-.2-.6h.1c.3-.1.6 0 .7.4.1.3 0 .6-.4.7l-.1-.6v.6z" fill="#ACE1C6"/>
  <path d="M90.4 71v-5c0-.2.2-.3.3-.3.2 0 .3.1.3.3v5c0 .2-.2.3-.3.3a.3.3 0 01-.3-.2z" fill="#ACE1C6"/>
  <path d="M92.5 71.6v-6.8c0-.2.2-.3.4-.3.1 0 .2.1.2.3v6.8c0 .2-.1.3-.3.3a.3.3 0 01-.3-.3z" fill="#ACE1C6"/>
  <path d="M94.7 67v-3.2c0-.2.2-.3.3-.3.2 0 .3.1.3.3V67c0 .1-.1.3-.3.2a.3.3 0 01-.3-.2z" fill="#ACE1C6"/>
  <path d="M96.1 63.8V60c0-.2.1-.3.3-.3l.2.3v3.7a.3.3 0 01-.5.1z" fill="#ACE1C6"/>
  <path d="M98.5 60.3c-.2-.1-.1-2.4-.1-2.6 0-.2.1-.3.3-.3.1 0 .3.1.3.3V60a.3.3 0 01-.5.2z" fill="#ACE1C6"/>
  <path d="M100.5 57.1v-2.8c0-.2.1-.3.3-.3.2 0 .3.1.3.3v2.8c0 .2-.2.3-.3.3a.3.3 0 01-.3-.3z" fill="#ACE1C6"/>
  <path d="M103.3 54.4v-2.8l.3-.3c.2 0 .3.2.3.3v2.8c0 .2-.2.3-.3.3a.3.3 0 01-.3-.3z" fill="#ACE1C6"/>
  <path d="M105.4 52.6V50l.3-.2c.2 0 .3 0 .3.2v2.8c0 .1-.1.2-.3.2a.3.3 0 01-.3-.3z" fill="#ACE1C6"/>
  <path d="M107.8 51v-2.4l.3-.2c.2 0 .3.1.3.3V51l-.3.2a.3.3 0 01-.3-.2z" fill="#ACE1C6"/>
  <path d="M88 69.4v-4.3c0-.1 0-.3.2-.3s.3.2.3.3v4.4c0 .1-.1.2-.3.2a.3.3 0 01-.3-.3z" fill="#ACE1C6"/>
  <path d="M85.2 68.5v-4.2c0-.2.1-.3.3-.3.1 0 .3.1.3.3v4c0 .3-.4.4-.6.2z" fill="#ACE1C6"/>
  <path d="M82.6 68v-3.7c0-.1.2-.3.3-.2.2 0 .3 0 .3.2V68c0 .4-.6.4-.6 0z" fill="#ACE1C6"/>
  <path d="M80.4 68v-3.2c0-.1.1-.3.3-.3l.3.3V68l-.4.2a.3.3 0 01-.2-.3z" fill="#ACE1C6"/>
  <path d="M78.5 68.3v-3c0-.2 0-.3.2-.3s.3.1.3.3V68c0 .2-.3.3-.5.2z" fill="#ACE1C6"/>
  <path d="M77 67.1c0-.2.2-.3.4-.3l4.7.1c.3 0 .3.6 0 .6l-4.7-.1a.3.3 0 01-.3-.3z" fill="#ACE1C6"/>
  <path d="M81.8 65.1c0-.1.1-.3.3-.3l4.6.1c.1 0 .3.1.3.3l-.3.3-4.6-.1a.3.3 0 01-.3-.3z" fill="#ACE1C6"/>
  <path d="M82.3 67l5.1.1c.2 0 .3.2.3.3 0 .2-.1.3-.3.3h-5c-.5 0-.4-.6 0-.6z" fill="#ACE1C6"/>
  <path d="M87.5 66c0-.1.1-.3.3-.3H90c.2 0 .3.2.3.4l-.3.2h-2.3a.3.3 0 01-.3-.3z" fill="#ACE1C6"/>
  <path d="M88.4 68.7c0-.2.1-.3.3-.3h3.4l.2.3c0 .2 0 .3-.2.3h-3.4a.3.3 0 01-.3-.3z" fill="#ACE1C6"/>
  <path d="M91.7 66.6l.3-.2H95c.1 0 .2.1.2.3 0 .2 0 .3-.2.3H92a.3.3 0 01-.3-.4z" fill="#ACE1C6"/>
  <path d="M91.4 70.1c0-.1 0-.3.2-.3H93l.3.3c0 .2-.2.3-.3.3-.4 0-1.7.1-1.6-.3z" fill="#ACE1C6"/>
  <path d="M94.5 62l.3-.2h1.7c.2 0 .3.1.3.3 0 .2-.1.3-.3.3h-1.7a.3.3 0 01-.3-.3z" fill="#ACE1C6"/>
  <path d="M97.4 58.9c0-.2.1-.3.3-.3h1.5c.2 0 .3.1.3.3 0 .2-.1.3-.3.3h-1.5a.3.3 0 01-.3-.3z" fill="#ACE1C6"/>
  <path d="M99.2 56c0-.2.1-.3.3-.3h1.8c.2 0 .3.2.3.3 0 .2-.1.3-.3.3h-1.8a.3.3 0 01-.3-.3z" fill="#ACE1C6"/>
  <path d="M102.3 53c0-.1.1-.2.3-.2h2.5c.2 0 .3.1.3.3 0 .2-.1.3-.3.3h-2.6a.3.3 0 01-.2-.3z" fill="#ACE1C6"/>
  <path d="M104.8 50.5c0-.1.1-.3.3-.3h2.7c.1 0 .3.2.3.4l-.3.2H105a.3.3 0 01-.3-.3z" fill="#ACE1C6"/>
  <path d="M107.1 48.9c0-.2.1-.3.3-.3h1.4c.2 0 .3.2.3.3 0 .2-.1.3-.3.3h-1.4a.3.3 0 01-.3-.3z" fill="#ACE1C6"/>
  <path d="M105.5 48.3V46l.3-.2c.2 0 .3.1.3.3v2.3c0 .4-.6.4-.6 0z" fill="#ACE1C6"/>
  <path d="M103.5 49.6V47c0-.2 0-.3.2-.3s.3.2.3.3v2.3c0 .1-.1.2-.3.2h-.2z" fill="#ACE1C6"/>
  <path d="M101.7 51v-2.4l.3-.2c.2 0 .3.1.3.3V51l-.3.2a.3.3 0 01-.3-.2z" fill="#ACE1C6"/>
  <path d="M99.4 53.2v-2c0-.2.1-.3.3-.3.1 0 .3.1.3.3v2c0 .4-.6.4-.6 0z" fill="#ACE1C6"/>
  <path d="M97 55.3v-2c0-.2.2-.4.3-.4.2 0 .3.2.3.3v2.1c0 .2-.1.3-.3.3a.3.3 0 01-.3-.3z" fill="#ACE1C6"/>
  <path d="M94.4 56.9v-2c0-.1.1-.2.3-.2.1 0 .2.1.2.3v1.9c0 .1-.1.3-.3.3a.3.3 0 01-.2-.3z" fill="#ACE1C6"/>
  <path d="M92 56.7V55c0-.2 0-.3.2-.3s.3.1.3.3v1.7c0 .1-.1.3-.3.2a.3.3 0 01-.3-.2z" fill="#ACE1C6"/>
  <path d="M91.5 43v-2.5c0-.2.1-.3.3-.3.1 0 .2.1.2.3V43c0 .1-.1.3-.3.3a.3.3 0 01-.2-.3z" fill="#ACE1C6"/>
  <path d="M92.5 43.9v-1.7c0-.1.1-.3.3-.3l.3.3V44c0 .2-.2.3-.3.3a.3.3 0 01-.3-.3z" fill="#ACE1C6"/>
  <path d="M90 45.5v-2.2c0-.2.2-.3.3-.3.2 0 .3.1.3.3v2.2c0 .2-.2.3-.3.3a.3.3 0 01-.3-.3z" fill="#ACE1C6"/>
  <path d="M88 48l-.1-.2v-1.6c0-.2.1-.3.3-.3.1 0 .3.1.3.3v1.6c0 .2-.2.3-.3.3H88z" fill="#ACE1C6"/>
  <path d="M86.2 48.7v-1c0-.2.2-.3.3-.3.2 0 .3.1.3.3v1c0 .2-.2.3-.3.3a.3.3 0 01-.3-.3z" fill="#ACE1C6"/>
  <path d="M77.8 37.3v-2.5l.3-.2c.2 0 .3 0 .3.2v2.5c0 .4-.6.4-.6 0z" fill="#ACE1C6"/>
  <path d="M76.2 38.4V36c0-.2.1-.3.3-.3.1 0 .2.1.2.3v2.4c0 .2-.1.3-.3.3a.3.3 0 01-.2-.3z" fill="#ACE1C6"/>
  <path d="M79.6 39.5v-2.7c0-.1.1-.2.3-.2.1 0 .3 0 .3.2v2.7c0 .2-.2.3-.3.3a.3.3 0 01-.3-.3z" fill="#ACE1C6"/>
  <path d="M80.9 41v-2.4c0-.2.1-.3.3-.3.1 0 .3.1.3.3v2.3c0 .2-.2.3-.3.3a.3.3 0 01-.3-.3z" fill="#ACE1C6"/>
  <path d="M77.6 40.8v-2s.1-.2.3-.2c.1 0 .2.1.2.3v2c0 .3-.5.3-.5 0z" fill="#ACE1C6"/>
  <path d="M79.2 43.6v-2s.1-.2.3-.2c.1 0 .3.1.3.3v1.9c0 .2-.2.3-.3.3a.3.3 0 01-.3-.3z" fill="#ACE1C6"/>
  <path d="M78.7 38.1c0-.1.1-.2.3-.2h2.2c.1 0 .3.1.2.3 0 .1 0 .2-.2.2H79a.3.3 0 01-.3-.3z" fill="#ACE1C6"/>
  <path d="M76.2 36.1c0-.2 0-.3.2-.3h1.8c.2 0 .3.2.3.3 0 .2-.1.3-.3.3h-1.8a.3.3 0 01-.2-.3z" fill="#ACE1C6"/>
  <path d="M75.7 37.9c0-.2.1-.3.3-.3h2.3c.2 0 .3.2.3.3 0 .2-.1.3-.3.3H76a.3.3 0 01-.3-.3z" fill="#ACE1C6"/>
  <path d="M77.1 40l.3-.2h1.4c.1 0 .3.1.3.3 0 .2-.2.3-.3.3h-1.4a.3.3 0 01-.3-.3z" fill="#ACE1C6"/>
  <path d="M79 42.2h1.4c.1 0 .3.1.3.3l-.3.2H79c-.4 0-.4-.5 0-.5z" fill="#ACE1C6"/>
  <path d="M81.1 39.7v-.2c0-.2 0-.3.2-.3h.6l.3.3c0 .2-.2.3-.3.3h-.6l-.2-.1z" fill="#ACE1C6"/>
  <path d="M91.6 42.7c0-.1 0-.2.2-.2h1.3c.2 0 .3.1.3.3l-.3.2h-1.3a.3.3 0 01-.2-.3z" fill="#ACE1C6"/>
  <path d="M89.3 44.6c0-.1 0-.2.2-.2h1.6c.2 0 .3.1.3.3 0 .1-.1.3-.3.3h-1.6a.3.3 0 01-.2-.4z" fill="#ACE1C6"/>
  <path d="M87.6 46.5l.3-.2h1.3c.1 0 .3.1.3.3l-.3.2h-1.3a.3.3 0 01-.3-.3z" fill="#ACE1C6"/>
  <path d="M85.9 48.3a.3.3 0 01.2-.5h2.3a.3.3 0 010 .6H86l-.2-.1z" fill="#ACE1C6"/>
  <path d="M92.1 44.7c0-.1.1-.3.3-.3h1.5c.1 0 .3.2.3.4l-.3.2h-1.5a.3.3 0 01-.3-.3z" fill="#ACE1C6"/>
  <path d="M92.2 46.3c0-.2.1-.3.3-.3h.6c.2 0 .3.1.3.3 0 .1-.1.3-.3.3h-.6a.3.3 0 01-.3-.3z" fill="#ACE1C6"/>
  <path d="M104.8 47.2l.3-.2h1.5c.2 0 .3.1.3.3 0 .1-.1.3-.3.2h-1.5a.3.3 0 01-.3-.3z" fill="#ACE1C6"/>
  <path d="M102.7 48.5c0-.2.2-.3.3-.3h2l.2.3c0 .2-.1.3-.3.3H103a.3.3 0 01-.3-.3z" fill="#ACE1C6"/>
  <path d="M101.3 50.2c0-.1 0-.3.2-.3h2c.2 0 .4.2.4.3 0 .2-.2.3-.3.3h-2a.3.3 0 01-.3-.3z" fill="#ACE1C6"/>
  <path d="M98.2 52.7c0-.2.1-.3.3-.3h2c.2 0 .3.1.3.3 0 .2-.1.3-.3.3h-2a.3.3 0 01-.3-.3z" fill="#ACE1C6"/>
  <path d="M96 54.6c0-.1.2-.3.4-.3h2.2c.2 0 .3.2.3.4 0 .1-.1.2-.3.2h-2.2a.3.3 0 01-.3-.3z" fill="#ACE1C6"/>
  <path d="M94 55.8h1.6c.2 0 .3.2.3.3 0 .2-.1.3-.3.3H94c-.4 0-.4-.6 0-.6z" fill="#ACE1C6"/>
  <path d="M91.1 56l.3-.2h1.3c.2 0 .3.1.3.3 0 .1-.1.3-.3.3h-1.3a.3.3 0 01-.3-.3z" fill="#ACE1C6"/>
  <path d="M83.5 56v-4.2c0-.1.2-.3.4-.3l.2.3V56c0 .1-.1.2-.3.2a.3.3 0 01-.3-.2z" fill="#ACE1C6"/>
  <path d="M86 58.2l.1-6c0-.1.1-.3.3-.3l.3.3-.1 6c0 .1-.1.3-.3.3a.3.3 0 01-.3-.3z" fill="#ACE1C6"/>
  <path d="M82.8 53.8c0-.2.1-.3.3-.3h4.3c.2 0 .3.2.3.3 0 .2-.1.3-.3.3h-4.3a.3.3 0 01-.3-.3z" fill="#ACE1C6"/>
  <path d="M84.4 57.8V56c0-.2.1-.3.3-.3.2 0 .3.1.3.3v1.8c0 .2-.2.3-.3.3a.3.3 0 01-.3-.3z" fill="#ACE1C6"/>
  <path d="M87.8 55.4v-2.8c0-.2.1-.3.3-.3.1 0 .3.1.3.3v2.8c0 .2-.2.3-.3.3a.3.3 0 01-.3-.3z" fill="#ACE1C6"/>
  <path d="M107.7 84.8c-.2-1 0-2.5.2-5.2.3-4.8.4-6.3 1-8a8.2 8.2 0 0111.3-4.8c4.7 2 8.2 8 8 13.2-.4 5.1-4.4 9-9 8.5-1 .5-3.7-.9-4.6-1.2-1.7-.5-3.2-.7-4.5-1-2.3-.2-2.4-1.5-2.4-1.5zm19.2-8.6a13 13 0 00-6.8-8.5c-4.2-1.8-9 .2-10.4 4.4-.5 1.6-.6 3-1 7.8-.6 8.2-.7 3.8 6.8 6.8 8 3.2 13.3-3.3 11.4-10.5z" fill="#ACE1C6"/>
  <path d="M127 69c.7-.6 1-1.5 1.1-2.5 0-1-.3-2-.8-2.8l-.2-.3c-1.3-1.7-1.4-2.8.3-3.3.8-.3.9-.4.5-1.7-.6-2.4 0-2.6 2.5-5.3 5-5.7 5.4 4.7 8.3 1.4 1.6-1.8 3.9-1.7 5.6-.5 3 2.1 4 7 1 9.1 5.9 2 5.6 10.4.5 8.7-1.8-.6-2.4-.6-2.3.7 0 2-1.1 2-2.4 1-2-1.6-1.2.4-1.6 1.6-.5 1-1.8 1-2.8.4-1.3-.8-4-4.6-7.2-2.8-.5.3-1-.6-.5-.9 1.7-1 4-.5 5.9 1 .7.6 1.4 1.5 2.1 1.9.6.3 1.5.4 1.7-.2v-.9c.2-2 1.2-2.1 2.8-.9.3.3.8.6 1 .4.2 0 .2-.3.1-.7 0-3.4 3.2-1.4 4.1-1.3 1.1.1 2-.9 2.2-2.2 0-2.2-2-5-5.4-5.2-.6 0-.7-1-.2-1 1.6 0 2.8-1.4 3-3.1.3-4-4.2-7.1-6.7-4.6-4.6 4.7-4-6.3-8.6-1.2-2.5 2.9-2.7 2.7-2.3 4.5 1.3 4.3-3.4 1.3-1 4.6l.2.3c.7 1 1 2.3 1 3.5a4 4 0 01-1.3 3c-.1.2-.4.1-.6-.1v-.7z" fill="#ACE1C6"/>
  <path d="M127 71.6c-.2-2.4 2-3.3 3.2-3.8h.3c3.4-1.5 5.3-3.5 7-5.3 1-1 4.8-4.7 5.4-3.2 0 .3 0 .5-.3.6-1.8.6-3 2-4.4 3.4-1.8 1.8-3.7 3.8-7.3 5.4h-.3c-1 .5-2.8 1.2-2.8 3 0 .2-.1.4-.4.4-.2 0-.4-.3-.5-.5z" fill="#ACE1C6"/>
  <path d="M133.2 66.7v-.3c1-3 1-6.5-.2-10.3-.2-.6.6-.8.8-.2 1.1 3.7 1.3 7.2.5 10.2 3.7-.2 7.5.1 11.3 1 .2.1.4.4.4.6 0 .3-.2.4-.5.4-4-1-8-1.3-11.8-1-.1 0-.3 0-.4-.2l-.1-.2z" fill="#ACE1C6"/>
  <path d="M107.8 79.4l1.5-2.6h.3v.3l-1.4 2.6h-.3v-.3z" fill="#ACE1C6"/>
  <path d="M107 84l3-5s.1-.1.2 0v.3l-2.7 5c-.2.2-.5 0-.4-.3z" fill="#ACE1C6"/>
  <path d="M109.4 86l2-3.5h.3v.3l-2 3.5c0 .1-.1.1-.2 0-.2 0-.2-.2-.1-.3z" fill="#ACE1C6"/>
  <path d="M112.5 85.8l1.3-2.3h.3v.3L113 86h-.3c-.1 0-.2-.2-.1-.3z" fill="#ACE1C6"/>
  <path d="M115 86.5l.8-1.6h.3c.1 0 .2.2.1.3l-.9 1.5c0 .1-.2.2-.3 0 0 0-.1-.1 0-.2z" fill="#ACE1C6"/>
  <path d="M117 87.2l1.2-2c.1-.3.5 0 .4.2l-1.2 2.1h-.3v-.3z" fill="#ACE1C6"/>
  <path d="M108.2 76.4l2.8 2.1c0 .1.1.3 0 .4h-.2l-2.8-2.1c-.3-.2 0-.6.2-.4z" fill="#ACE1C6"/>
  <path d="M107.8 79l4.7 3.7c.2.2 0 .6-.2.4l-4.7-3.7c-.3-.2 0-.6.2-.4z" fill="#ACE1C6"/>
  <path d="M107.3 82l4.5 3.5c.3.2 0 .6-.2.4l-4.5-3.5c-.2-.2 0-.6.2-.4z" fill="#ACE1C6"/>
  <path d="M111.7 82.4l6.1 4.8c.3.1 0 .5-.2.3l-6-4.7c-.3-.2-.1-.6.1-.4z" fill="#ACE1C6"/>
  <path d="M117.6 85.2l1.2 1c.3.1 0 .5-.2.3l-1.2-1c-.2-.2 0-.5.2-.3z" fill="#ACE1C6"/>
  <path d="M109.2 82l2.5 2v.3c0 .1-.1.2-.2 0l-2.5-1.8c-.2-.2 0-.6.2-.4z" fill="#ACE1C6"/>
  <path d="M108 84l2.1 1.5c.3.2 0 .6-.2.4l-2-1.6c-.3-.2 0-.5.2-.3z" fill="#ACE1C6"/>
  <path d="M113.8 71.5v-.3c2.7-2.4 6.7-2.2 9.7.3.2.1.2.3.1.4h-.3c-3-2.4-6.7-2.5-9.2-.2l-.3-.1v-.1z" fill="#ACE1C6"/>
  <path d="M121.4 71.4l.8-1.7h.3v.3l-.7 1.6c0 .1-.2.2-.3.1v-.3z" fill="#ACE1C6"/>
  <path d="M119.9 70.7c.2-.5.3-1 .3-1.6l.3-.2.2.3c0 .5-.3 2-.7 1.8-.2-.1-.2-.2-.1-.3z" fill="#ACE1C6"/>
  <path d="M117.8 71v-1.5c0-.1.1-.2.3-.2l.2.3V71c0 .3-.4.2-.5 0z" fill="#ACE1C6"/>
  <path d="M115.5 69.9l.7 1.8c.1.3-.3.5-.4.2l-.6-1.9c-.2-.3.2-.4.3-.1z" fill="#ACE1C6"/>
  <path d="M143.1 229.8a39 39 0 01-4.6-17c-.2-8.6 4.3-14.8 12.2-16.5 6.4-1.5 11.2 2.6 10.6 9.2a36 36 0 01-8.8 19.1c-1.6 2-3.6 3.7-5.7 5.5 2.4 4 5.5 7 9.5 9.1 4 2.1 8.3 3 12.9 2 .3 1.5-.7 1.8-1.4 2-3.2 1.1-6.3.8-9.4-.2-5.5-1.7-9.7-5-13-9.7l-1-1.4-2.5 1.2a26.5 26.5 0 01-24.7-1.5c-12.6-7-18-18.6-19.9-32.2a69.5 69.5 0 013.1-31.4c1.7-5.3 4.3-10 6.5-15 .3-.7.7-1.3 1.4-1 .9.3.7 1 .5 1.7l-2.3 5a68 68 0 00-6.8 40.4 42 42 0 0010.2 23.6c6 6.3 13 10.2 21.8 10.2 4 0 7.8-1 11.4-3.1zm2.5-1.6l1.7-1.3c4.7-3.8 8-8.6 10.4-14.1 1.1-2.7 2-5.5 2-8.5-.1-4.7-3.6-7.3-8.1-6.3-6 1.3-10.2 6-10.5 12.2a34.3 34.3 0 004.5 18z" fill="#ACE1C6"/>
  <path d="M73.7 163.2c.6-.7 1.4-1 2.2-1.3 4.7-1.8 9.2-4.1 13.6-6.8l2.3-1.6c.5-.4 1-1.1 1.6-.5.7.7 0 1.2-.5 1.6a42 42 0 01-17.4 9.4c-.6.1-1.2.4-1.6-.2-.2-.1-.2-.4-.2-.6z" fill="#FFC48A"/>
  <path d="M85.3 141.3c.5.3.6.6.3 1l-1 1-12.3 8.3c-1 .7-2 1.3-3.3 1.4-.6.1-1.3 0-1.5-.7-.2-.7.2-1.1.8-1.4 5.5-2.6 10.6-6.1 16-9.3.2-.2.5-.4 1-.3z" fill="#FFC48A"/>
  <path d="M71 156.3c.4-.7 1-.9 1.7-1.2 4.4-2 9-3.6 13.4-6l2.6-1.4c.4-.3.8-.5 1.2 0 .5.5-.1.8-.5 1.1-.2.3-.6.5-.9.7a88 88 0 01-15.7 7.6c-.6.2-1.1.5-1.7.1-.2-.2-.2-.5 0-.9z" fill="#FFC48A"/>
  <path d="M24.9 150.2L9.6 166.4l36.6 45.4L72 184l-47.1-33.8z" fill="#FFC48A"/>
  <path d="M78.9 182.4l-31.2 34.3c-.2.2-.6.2-.8 0a6.6 6.6 0 01-2.1-6.8c1-3.4 7.7-11.7 13.8-18.3 3.2-3.5 6.3-6.7 8.4-8.6 1.6-1.4 3.4-3 5.6-3.5 2.4-.5 5.4.2 6.4 2.3l-.1.6zm-31.7 33L77.7 182c-.9-1.3-3.1-1.7-4.8-1.3-2 .5-3.6 1.8-5 3.2-2.2 1.9-5.2 5-8.5 8.5A78.4 78.4 0 0046 210.2c-.5 1.8 0 4 1.3 5.2z" fill="#22543D"/>
  <path d="M18.4 161.7a64 64 0 01-4.5 4.5c-.9.8-2 1.8-3.4 2-1.5.5-3.4 0-4-1.4-.1-.2 0-.4.1-.6l18.5-20.3c.2-.2.5-.3.8 0 1.2.9 1.7 2.7 1.3 4.3-.4 1.4-1.4 2.6-2.2 3.7-2.2 2.7-4.3 5.3-6.6 7.8zm-10.6 5c.5.5 1.6.6 2.5.4 1-.2 2-1 2.8-1.8A66.8 66.8 0 0026 149.8c.3-.9 0-2-.5-2.6L7.8 166.6z" fill="#22543D"/>
  <path d="M73.1 180.4c-.2.2-.5.3-.8.1-48.5-32.4-46.6-30.7-46-31.5.5-.8-1.8-2 46.7 30.5a.6.6 0 01.1 1z" fill="#22543D"/>
  <path d="M45 211.3c-.3.3-.7.2-.9 0l-35-43a.6.6 0 01.2-.8c.2-.3.6-.2.8 0l35 43c.2.2.1.6 0 .8z" fill="#22543D"/>
  <path d="M23.9 148.6c-.2.3-.6.3-.9.1l-4.7-3.6c-3.1-2.5-4.6-2.8-7.8-.2-2.8 2.3-5.3 5-7.5 7.9-1.7 2.1-1.6 3-.5 4.8 1.6 2.6 3.5 5 5.7 7 .3.2.3.6 0 .9-.2.2-.6.2-.8 0a32.9 32.9 0 01-6-7.2c-1.3-2.4-1.2-3.8.6-6.2 2.2-3 4.8-5.7 7.7-8.1 3.8-3.2 6-2.5 9.4 0l4.3 3.4.2.2.2.2c.3.2.3.6 0 .8z" fill="#22543D"/>
  <path d="M11 162.6c-.2.3-.6.3-.8 0L6.9 159c-1.8-2-1.9-3.3-.2-5.4A82 82 0 0110 150c1.2-1.4 3.4-3.8 7.5-2.1 1.5.6 2.7 1.6 3.8 2.6.2.2.3.6 0 .8-.2.2-.6.3-.8.1-1-1-2.2-1.8-3.5-2.4-3.3-1.4-5 .5-6.1 1.7a85.6 85.6 0 00-3.2 3.7c-1.4 1.6-1.3 2.2 0 3.8l3.4 3.7c.2.3.2.6 0 .8z" fill="#22543D"/>
  <path d="M43.2 203.4c-.3.2-.7.3-.9 0l-1.1-1a.6.6 0 010-.8c.2-.2.5-.3.8 0l1.1 1c.3.1.3.5 0 .8z" fill="#22543D"/>
  <path d="M48.6 197.5c-.3.3-.7.3-1 0l-1-1a.6.6 0 01-.1-.9c.2-.2.6-.3.9 0l1.1 1c.3.3.3.7 0 1z" fill="#22543D"/>
  <path d="M54.2 191.5c-.2.3-.5.3-.7.2l-1.8-1a.6.6 0 01-.2-.9c.2-.3.6-.4.9-.2l1.7 1a.6.6 0 01.1 1z" fill="#22543D"/>
  <path d="M59.7 185.5c-.2.2-.5.3-.7.2l-2-.9a.6.6 0 01-.2-.8c.1-.3.5-.4.8-.3l1.9.9c.3.1.4.5.3.8l-.1.1z" fill="#22543D"/>
  <path d="M65 179.7c-.3.2-.6.2-.8 0l-1.7-.9a.6.6 0 01-.2-.8c.2-.3.6-.4.9-.2l1.6 1a.6.6 0 01.1.9z" fill="#22543D"/>
  <path d="M39.8 193.6c-.2.3-.6.3-.9.1l-1-.8a.6.6 0 010-.8c.1-.3.6-.3.8-.1l1 .7c.3.2.3.6.1.9z" fill="#22543D"/>
  <path d="M44.7 188.2c-.2.3-.6.3-.8.1l-1-.9a.6.6 0 01-.1-.8c.2-.3.6-.3.9-.1l1 .9c.2.2.3.6 0 .8z" fill="#22543D"/>
  <path d="M50 182.8c-.3.2-.6.2-.8.1l-1.5-.8a.6.6 0 01-.3-.8c.2-.3.5-.4.8-.3l1.5.8a.6.6 0 01.2 1z" fill="#22543D"/>
  <path d="M55 177.3c-.3.1-.5.2-.8.1l-1.6-.6a.6.6 0 01-.4-.8c.2-.3.5-.5.8-.4l1.7.7c.3.1.5.5.3.8v.2z" fill="#22543D"/>
  <path d="M32.5 190.3c-.3.2-.6.2-.9 0l-.8-.6a.6.6 0 010-.9c.1-.2.5-.3.8 0l.8.6a.6.6 0 010 .9z" fill="#22543D"/>
  <path d="M37 185.3c-.2.3-.6.3-.8 0l-.9-.7a.6.6 0 010-.9c.2-.2.6-.2.8 0l.9.7c.2.3.3.7 0 1z" fill="#22543D"/>
  <path d="M41.8 180.2c-.2.3-.5.3-.7.2l-1.3-.7a.6.6 0 01-.3-.8c.2-.3.6-.4.9-.3l1.2.7a.6.6 0 01.2 1z" fill="#22543D"/>
  <path d="M46.4 175.2c-.2.2-.4.2-.7.1l-1.4-.5a.6.6 0 01-.3-.8c.1-.3.5-.5.8-.4l1.4.6c.3.1.4.5.3.8l-.1.2z" fill="#22543D"/>
  <path d="M50.8 170.2c-.2.2-.5.3-.7.1l-1.2-.6a.6.6 0 01-.2-.9c.2-.3.5-.4.8-.2l1.2.7a.6.6 0 01.1 1z" fill="#22543D"/>
  <path d="M30.3 182.9c-.2.2-.5.2-.8 0l-.7-.5a.6.6 0 01-.1-.8c.2-.3.6-.4.8-.2l.8.6a.6.6 0 010 .9z" fill="#22543D"/>
  <path d="M34.6 178.3c-.2.2-.6.2-.9 0l-.6-.5c-.3-.3-.4-.7-.1-1 .2-.2.5-.3.8 0l.7.6a.6.6 0 010 .9z" fill="#22543D"/>
  <path d="M39 173.6c-.2.1-.5.2-.7.1l-1.2-.5a.6.6 0 01-.2-.8c.1-.3.5-.5.8-.3l1.1.5c.3.1.4.5.3.8l-.1.2z" fill="#22543D"/>
  <path d="M43.3 168.8c-.2.2-.4.3-.7.2l-1.2-.4a.6.6 0 01-.4-.8c.1-.3.5-.5.8-.4l1.2.5c.3 0 .5.4.4.7l-.1.2z" fill="#22543D"/>
  <path d="M24.6 180.7c-.2.2-.5.3-.8 0l-.6-.4a.6.6 0 01-.1-.9c.2-.2.6-.3.8 0l.7.4c.2.2.3.6 0 .8z" fill="#22543D"/>
  <path d="M28.6 176.4c-.2.2-.6.3-.9 0l-.6-.5a.6.6 0 010-.9c.2-.2.6-.3.8 0l.7.5c.2.2.2.6 0 .9z" fill="#22543D"/>
  <path d="M32.7 172c-.2.2-.5.3-.7.1l-1-.4a.6.6 0 01-.3-.8c.2-.4.6-.5.9-.3l1 .4c.2.2.4.5.2.9z" fill="#22543D"/>
  <path d="M36.7 167.6c-.2.2-.4.3-.7.2l-1-.4a.6.6 0 01-.4-.8c.1-.3.5-.5.8-.4l1 .4c.4.1.5.5.4.8l-.1.2z" fill="#22543D"/>
  <path d="M40.5 163.3c-.1.2-.5.3-.7.1l-.9-.5a.6.6 0 01-.2-.8c.2-.3.5-.4.8-.2l.9.5a.6.6 0 01.1 1z" fill="#22543D"/>
  <path d="M23.3 174.8c-.2.2-.6.3-.8.1l-.6-.4a.6.6 0 01-.1-.8c.2-.3.5-.4.8-.2l.6.4c.3.2.3.6.1.9z" fill="#22543D"/>
  <path d="M27 170.8c-.2.2-.6.3-.9 0l-.5-.4a.6.6 0 01-.1-.9c.2-.3.6-.3.8 0l.6.4c.3.2.3.6.1.9z" fill="#22543D"/>
  <path d="M30.8 166.7c-.1.2-.4.2-.7.1l-.9-.4a.6.6 0 01-.3-.8c.2-.3.5-.4.8-.3l1 .4c.2.1.4.5.2.8v.2z" fill="#22543D"/>
  <path d="M34.6 162.6c-.2.1-.4.2-.7.1l-1-.3a.6.6 0 01-.3-.7c0-.3.4-.5.7-.4l1 .3c.3 0 .5.4.4.7l-.1.3z" fill="#22543D"/>
  <path d="M18.7 173.4c-.2.2-.6.2-.8 0l-.5-.3a.6.6 0 01-.2-.8c.2-.3.6-.4.9-.2l.5.4a.6.6 0 010 .9z" fill="#22543D"/>
  <path d="M22.2 169.6c-.3.2-.6.3-.9 0l-.5-.4a.6.6 0 01.8-1l.5.5c.3.2.3.6 0 .9z" fill="#22543D"/>
  <path d="M25.8 165.7c-.2.2-.5.3-.7.2l-.8-.4a.6.6 0 01-.3-.8c.1-.3.5-.4.8-.3l.8.3c.3.2.4.5.3.8l-.1.2z" fill="#22543D"/>
  <path d="M29.3 161.8c-.2.2-.4.3-.6.2l-1-.3a.6.6 0 01-.3-.7c.1-.3.5-.5.8-.4l.8.2c.4.1.5.5.4.8l-.1.2z" fill="#22543D"/>
  <path d="M32.7 158c-.2.3-.5.3-.8.2l-.7-.4a.6.6 0 01-.2-.8c.2-.3.6-.4.9-.3l.6.4a.6.6 0 01.2 1z" fill="#22543D"/>
  <path d="M17.8 168.6c-.2.2-.5.2-.8 0l-.4-.2c-.2-.1-.4-.6-.2-.8.2-.3.5-.4.8-.3l.1.1.4.2a.6.6 0 01.1 1z" fill="#22543D"/>
  <path d="M21 165c-.1.2-.5.3-.7 0l-.5-.3a.6.6 0 010-.9c.1-.2.5-.3.8 0l.4.3a.6.6 0 010 .9z" fill="#22543D"/>
  <path d="M24.5 161.3c-.2.2-.4.3-.7.2l-.7-.3a.6.6 0 01-.3-.8c0-.3.4-.5.8-.3l.7.2c.3.2.5.5.3.8v.2z" fill="#22543D"/>
  <path d="M27.8 157.7l-.6.2-.8-.3a.6.6 0 01-.4-.7c0-.3.4-.5.7-.4l.8.2c.4 0 .6.4.5.7l-.2.3z" fill="#22543D"/>
  <path d="M66.7 195.3l-5 .3c-.4 0-.4-.5 0-.6l5-.3c.4 0 .4.6 0 .6z" fill="#22543D"/>
  <path d="M67.9 193.6l-5.1.3a.3.3 0 01-.4-.2c0-.2.2-.4.3-.4l5.2-.3c.4 0 .4.6 0 .6z" fill="#22543D"/>
  <path d="M69.3 191.4l-5 .3a.3.3 0 01-.3-.3c0-.1.1-.3.3-.3l5-.3c.1 0 .3.1.3.3 0 .2-.1.3-.3.3z" fill="#22543D"/>
  <path d="M71.4 189.3l-5 .4a.3.3 0 01-.3-.3c0-.2.1-.3.3-.3l4.7-.3c.3 0 .5.3.3.5z" fill="#22543D"/>
  <path d="M73.3 186.7l-4.8.3a.3.3 0 01-.3-.3c0-.1 0-.3.2-.3l4.7-.2c.2 0 .4.3.2.5z" fill="#22543D"/>
  <path d="M75.7 184.5l-5.3.4a.3.3 0 01-.3-.3c0-.2.1-.3.3-.3l5-.3c.2 0 .4 0 .4.2l-.1.3z" fill="#22543D"/>
  <path d="M75.9 182.4l-3.2.2a.3.3 0 01-.4-.3c0-.2.2-.3.3-.3l3.2-.2c.4 0 .5.6 0 .6z" fill="#22543D"/>
  <path d="M63.7 198l-3.1.2a.3.3 0 01-.4-.3c0-.2.2-.3.3-.3l3.2-.2c.4 0 .4.6 0 .6z" fill="#22543D"/>
  <path d="M61.6 200.5l-2.2.2a.3.3 0 01-.3-.3c0-.2.1-.3.3-.3l2-.1c.3 0 .4.3.2.5z" fill="#22543D"/>
  <path d="M58.4 202.3a.3.3 0 01-.3-.2c0-.2.1-.3.3-.4h1.8c.2 0 .3 0 .3.2 0 .5-1.6.4-2 .4z" fill="#22543D"/>
  <path d="M58.4 204.2h-1.2a.3.3 0 01-.4-.2c0-.2.2-.3.3-.3h1.3c.4-.1.4.5 0 .5z" fill="#22543D"/>
  <path d="M57.3 206h-1.5a.3.3 0 01-.4-.2c0-.2.2-.4.3-.4h1.6c.1 0 .3 0 .3.2s-.1.3-.3.4z" fill="#22543D"/>
  <path d="M56.4 206.4a.3.3 0 01-.4-.3l-.2-5.4.3-.3c.2 0 .3.1.3.3l.2 5.4c0 .2 0 .3-.3.3z" fill="#22543D"/>
  <path d="M58 203.7l-.2-5.3c0-.1.1-.3.3-.3.2 0 .3.1.3.3l.2 5.3c0 .4-.6.4-.6 0z" fill="#22543D"/>
  <path d="M61 200.4l-.3-6.3c0-.2.2-.3.3-.3.2 0 .3.1.3.3l.3 6.2c0 .4-.6.5-.6 0z" fill="#22543D"/>
  <path d="M63.7 197.2l-.2-7c0-.2 0-.3.2-.3s.4 0 .4.2l.2 7c0 .5-.6.5-.6.1z" fill="#22543D"/>
  <path d="M67.2 193.8l-.3-7.5c0-.2.1-.4.3-.4.1 0 .3.1.3.3l.3 7.6c0 .4-.6.4-.6 0z" fill="#22543D"/>
  <path d="M69.6 191l-.2-7.2c0-.2 0-.3.3-.3.1 0 .3 0 .3.3l.3 7.2c0 .4-.6.5-.7 0z" fill="#22543D"/>
  <path d="M73.4 186l-.2-4.2c0-.4.6-.4.7 0l.1 4.1c0 .4-.6.5-.6 0z" fill="#22543D"/>
  <path d="M75.8 183a.3.3 0 01-.3-.4v-1.1c0-.2 0-.3.2-.3s.3 0 .4.2v1.2c0 .2-.1.3-.3.3z" fill="#22543D"/>
  <path d="M72 184l-.3.1a.3.3 0 01-.3-.3V182c0-.1 0-.3.3-.3.1 0 .3.1.3.3v2z" fill="#22543D"/>
  <path d="M60 200h-.2a.3.3 0 01-.3-.2l-.1-2.5c0-.2.1-.3.3-.4l.3.3v2.7z" fill="#22543D"/>
  <path d="M54.3 208.4l-.2.1a.3.3 0 01-.4-.3v-3s0-.2.2-.2.3 0 .3.3c0 .2.2 3 0 3.1z" fill="#22543D"/>
  <path d="M52.5 210.4h-.2a.3.3 0 01-.3-.2v-2.3c0-.1 0-.3.2-.3s.3.1.3.3l.1 2.3v.2z" fill="#22543D"/>
  <path d="M50.3 212.3v-2s0-.2.2-.2.3 0 .3.2l.1 2c0 .4-.6.4-.6 0z" fill="#22543D"/>
  <path d="M49 214a.3.3 0 01-.3-.3V212c-.1-.1 0-.3.2-.3s.3.1.3.3v1.7c0 .1 0 .3-.2.3z" fill="#22543D"/>
  <path d="M50.5 212.5h-2a.3.3 0 01-.3-.2c0-.2.1-.3.3-.3l2-.1c.2 0 .3 0 .3.2s-.1.4-.3.4z" fill="#22543D"/>
  <path d="M52.2 210.4l-.2.1-2.1.1a.3.3 0 01-.3-.3c0-.1 0-.3.3-.3l2-.1c.3 0 .4.1.4.3v.2z" fill="#22543D"/>
  <path d="M54.2 208.1l-2.4.2a.3.3 0 01-.3-.3c0-.2.1-.3.3-.4H54c.2-.1.4 0 .4.2s-.2.3-.3.3z" fill="#22543D"/>
  <path d="M56 205.8l-2.8.2a.3.3 0 01-.3-.3c0-.2.2-.3.3-.3l2.7-.2c.2 0 .3.1.3.3 0 .2-.1.3-.3.3z" fill="#22543D"/>
  <path d="M58.3 202.4H58l-3.4.3a.3.3 0 01-.3-.3c0-.2 0-.3.3-.3l3.4-.2c.2 0 .3 0 .3.2v.3z" fill="#22543D"/>
  <path d="M59.1 199.4l-1.9.1a.3.3 0 01-.3-.3c0-.1.1-.3.3-.3h2c.3-.1.3.5 0 .5z" fill="#22543D"/>
  <path d="M62 195h-1.7a.3.3 0 01-.3-.2c0-.2.2-.3.3-.3l1.6-.1c.4 0 .5.6 0 .6z" fill="#22543D"/>
  <path d="M3.7 155.1l-2 .1a.3.3 0 01-.4-.2c0-.2.1-.4.3-.4h2.1c.4-.1.4.5 0 .5z" fill="#22543D"/>
  <path d="M4.5 153.2l-2.2.2a.3.3 0 01-.3-.3c0-.2.1-.3.3-.3l2.1-.2c.4 0 .4.6 0 .6z" fill="#22543D"/>
  <path d="M6 151.4l-2.5.2a.3.3 0 01-.4-.3c0-.2.2-.3.3-.3l2.7-.2c.4 0 .4.6 0 .6z" fill="#22543D"/>
  <path d="M7.7 149.4l-2.6.2a.3.3 0 01-.3-.3c0-.2.2-.3.3-.3l2.3-.1c.2 0 .4 0 .4.2l-.1.3z" fill="#22543D"/>
  <path d="M8.9 147.5l-1.8.1a.3.3 0 01-.3-.2c0-.2 0-.4.3-.4h1.7c.2 0 .3 0 .4.2 0 .2-.2.3-.3.3z" fill="#22543D"/>
  <path d="M10.9 146l-2.1.2a.3.3 0 01-.3-.3c0-.2.1-.3.3-.3l1.9-.1c.2 0 .4.3.2.5z" fill="#22543D"/>
  <path d="M3.7 157.2l-.2.1-1.8.1a.3.3 0 01-.3-.3c0-.1 0-.3.2-.3h1.9c.3-.1.4.2.2.4z" fill="#22543D"/>
  <path d="M4.4 159.4l-1.7.1a.3.3 0 01-.3-.2c0-.2.1-.4.3-.4h1.7c.4 0 .4.5 0 .5z" fill="#22543D"/>
  <path d="M6.2 161l-1.8.1a.3.3 0 01-.3-.3c0-.1.1-.3.3-.3l1.7-.1c.4 0 .4.6 0 .6z" fill="#22543D"/>
  <path d="M7 162.5H5.7a.3.3 0 01-.3-.3c0-.1.1-.3.3-.3H7c.1 0 .3 0 .3.2s-.2.3-.3.4z" fill="#22543D"/>
  <path d="M6.6 164a.3.3 0 01-.3-.2l-.1-3.7c0-.4.6-.4.6 0l.1 3.6c0 .2-.1.3-.3.3z" fill="#22543D"/>
  <path d="M4.4 161.3h-.2a.3.3 0 01-.3-.2l-.2-4.6c0-.4.6-.5.6 0l.2 4.5-.1.3z" fill="#22543D"/>
  <path d="M3 156.7h-.2a.3.3 0 01-.3-.2l-.1-2.4c0-.1.1-.3.3-.3.2 0 .3.1.3.3l.1 2.4v.2z" fill="#22543D"/>
  <path d="M4.8 154.2c-.2.2-.6 0-.6-.2v-3.5c-.1-.1 0-.3.2-.3s.3.1.3.3c0 .2.2 3.5 0 3.7z" fill="#22543D"/>
  <path d="M6.4 150.5V148c0-.1 0-.3.2-.3s.3.1.3.3l.1 2.5c0 .4-.6.4-.6 0z" fill="#22543D"/>
  <path d="M9 148.3a.3.3 0 01-.4-.3v-1.9c0-.2 0-.3.2-.3s.3.1.3.3l.1 1.9c0 .2-.1.3-.3.3z" fill="#22543D"/>
  <path d="M10.3 146.3c-.4 0-.3-.8-.3-1.3 0-.2.1-.3.3-.3.4 0 .3.8.3 1.2 0 .2-.1.3-.3.4z" fill="#22543D"/>
  <path d="M13.2 168.6l-2.8.2a.3.3 0 01-.3-.3c0-.1.1-.3.3-.3l2.8-.2c.4 0 .4.6 0 .6z" fill="#22543D"/>
  <path d="M15.5 167h-.2l-2.6.2a.3.3 0 01-.3-.3c0-.1.1-.3.3-.3l2.5-.1c.3 0 .4.3.3.5z" fill="#22543D"/>
  <path d="M17.2 165.2l-2.2.1a.3.3 0 01-.3-.3c0-.1.1-.3.3-.3l2.2-.1c.4 0 .4.6 0 .6z" fill="#22543D"/>
  <path d="M17.1 163a.3.3 0 01-.3-.4c0-.1.1-.3.3-.3l1.8-.1c.1 0 .3.1.3.3 0 .4-1.6.4-2.1.4z" fill="#22543D"/>
  <path d="M20.5 160.7l-1.5.2a.3.3 0 01-.3-.3c0-.2.1-.3.3-.4h1.3c.2 0 .4.3.2.5z" fill="#22543D"/>
  <path d="M15.7 170.5c-.2.2-3.5.3-3.7.3a.3.3 0 01-.3-.3c0-.1 0-.3.3-.3l3.4-.2c.2 0 .3.1.3.3v.2z" fill="#22543D"/>
  <path d="M16.3 172.3h-.2l-2.4.2a.3.3 0 01-.3-.3c0-.2.1-.3.3-.3l2.4-.2c.2 0 .3.2.3.3v.3z" fill="#22543D"/>
  <path d="M17.5 174.4l-.2.1-2.1.1a.3.3 0 01-.3-.2c0-.2.1-.3.3-.4h2c.2 0 .4 0 .4.2v.2z" fill="#22543D"/>
  <path d="M18.8 177h-2.2a.3.3 0 01-.3-.2c0-.2.2-.3.3-.3l2.2-.2c.4 0 .4.6 0 .6z" fill="#22543D"/>
  <path d="M20.5 178.5l-2 .2a.3.3 0 01-.3-.3c0-.2.1-.3.3-.3l2-.2.2.3c0 .2 0 .3-.2.3z" fill="#22543D"/>
  <path d="M21 180.5h-.2l-.9.1a.3.3 0 01-.3-.2c0-.2.1-.4.3-.4h.9c.2 0 .4.3.2.5z" fill="#22543D"/>
  <path d="M23.7 182.5l-.2.1-2 .1a.3.3 0 01-.3-.3c0-.1.1-.3.3-.3l2-.1.3.3-.1.2z" fill="#22543D"/>
  <path d="M24.3 184.5l-1.4.1a.3.3 0 01-.4-.3l.3-.3h1.5c.1 0 .3 0 .3.2s-.1.3-.3.3z" fill="#22543D"/>
  <path d="M25.2 185.8l-1.1.1a.3.3 0 01-.3-.3c0-.1.1-.3.3-.3h1.1c.4 0 .4.5 0 .5z" fill="#22543D"/>
  <path d="M24.7 186.6L23 185a.3.3 0 010-.5h.5l1.6 1.5c.3.3-.1.7-.4.5z" fill="#22543D"/>
  <path d="M23.2 184.7l-.2.1a.3.3 0 01-.3-.3l-.1-3.1c0-.2.1-.3.3-.3.1 0 .3 0 .3.2l.1 3.2v.2z" fill="#22543D"/>
  <path d="M21.3 182.2h-.2a.3.3 0 01-.3-.2l-.1-3.2c0-.2.1-.3.3-.3.1 0 .3.1.3.3l.1 3.1v.3z" fill="#22543D"/>
  <path d="M19.5 180h-.2a.3.3 0 01-.4-.2v-3c0-.3 0-.4.2-.4s.3.1.3.3l.2 3-.1.3z" fill="#22543D"/>
  <path d="M17.9 177l-.2.2a.3.3 0 01-.3-.3l-.1-2.7c0-.1 0-.3.3-.3.1 0 .3.1.3.3v2.9z" fill="#22543D"/>
  <path d="M15.9 175h-.2a.3.3 0 01-.4-.3v-3.3c0-.2 0-.3.2-.3s.3 0 .3.2l.2 3.4-.1.2z" fill="#22543D"/>
  <path d="M13.8 171.6h-.2a.3.3 0 01-.3-.2l-.1-3.1c0-.2.1-.3.3-.3.1 0 .3 0 .3.3l.1 3v.3z" fill="#22543D"/>
  <path d="M15.2 167.5v-2.3c0-.1 0-.3.2-.3s.3.1.3.3l.1 2.3c0 .4-.6.4-.6 0z" fill="#22543D"/>
  <path d="M16.9 164.5v-1.6c0-.2 0-.3.2-.3s.3 0 .3.2v1.7c.1.4-.5.4-.5 0z" fill="#22543D"/>
  <path d="M19.2 162.4a.3.3 0 01-.3-.2v-1.6c-.1-.1 0-.3.2-.3s.3.1.3.3v1.5c0 .2 0 .3-.2.3z" fill="#22543D"/>
  <path d="M19.7 160.8v-.9c0-.1.1-.3.3-.3.1 0 .3.1.3.3v.8c0 .5-.6.5-.6 0z" fill="#22543D"/>
  <path d="M26 151.3l-.2.1-2.7.2a.3.3 0 01-.3-.3c0-.2.1-.3.3-.3l2.7-.2c.2 0 .3.1.3.3v.2z" fill="#22543D"/>
  <path d="M25.8 150l-1.8.2a.3.3 0 01-.3-.3c0-.2.2-.3.3-.3l1.8-.1c.4 0 .4.6 0 .6z" fill="#22543D"/>
  <path d="M26.3 148.6l-.2.1-1.2.1a.3.3 0 01-.3-.3c0-.1.1-.3.3-.3H26c.2 0 .3 0 .3.2v.2z" fill="#22543D"/>
  <path d="M23.8 153.8l-2.1.2a.3.3 0 01-.3-.3c0-.2 0-.3.3-.3l1.8-.1c.3 0 .5.3.3.5z" fill="#22543D"/>
  <path d="M22.3 155.5H21a.3.3 0 01-.3-.2c0-.2.1-.3.3-.4h1.3c.4 0 .4.6 0 .6z" fill="#22543D"/>
  <path d="M21 157.2h-1.2a.3.3 0 01-.3-.3c0-.1.1-.3.3-.3H21c.1 0 .3 0 .3.2s-.1.3-.3.4z" fill="#22543D"/>
  <path d="M19.7 158.3v-2.6c0-.2 0-.3.2-.3s.3.1.3.3l.1 2.6c0 .4-.6.4-.6 0z" fill="#22543D"/>
  <path d="M21.7 156.4a.3.3 0 01-.4-.3V153c0-.2 0-.3.2-.3s.3 0 .3.3l.2 3.2-.3.3z" fill="#22543D"/>
  <path d="M23.2 154.2a.3.3 0 01-.3-.2l-.1-3c0-.3.1-.4.3-.4.1 0 .3.1.3.3l.1 3c0 .2-.1.3-.3.3z" fill="#22543D"/>
  <path d="M24.3 151.9v-2.5c0-.2 0-.3.2-.3s.3 0 .3.2l.1 2.6c0 .4-.6.4-.6 0z" fill="#22543D"/>
</svg>
