<svg viewBox="0 0 218 249" fill="none" xmlns="http://www.w3.org/2000/svg">
  <path d="M126.7 137.6c4.8-1.9 9.3-1.2 13.7 1.1 4.6 2.5 6.7 6.4 7 11.5.5-.2.4-.6.4-1 0-.3.2-.7.6-.7.5 0 .7.3.8.7.2.4.2 1 .1 1.4-.2 1.3-.6 2.5-1.2 3.7-.2.3-.4.8-1.1.7 1-2.5-.7-4.5-1-6.8a15 15 0 01-11 16.3c-.2.1-.6 0-.7.5 0 .8-.2 1.5-.6 2.1l-1.4 1.8c1.8 2 1.2 3.9-.2 5.7.9 1.6.8 2.8-.6 4.3-.5.6-.9 1-.4 2s-.3 1.9-1.2 2.5c.4 2 .1 2.6-2.6 5.5 1.4 0 2.7-.2 4-.3a59 59 0 0127.3 3.5 22 22 0 019.7 7.8c2 2.8 2.3 6 2 9.4-.6 5.5-2.9 10-7.8 12.8a49 49 0 01-3.5 1.9l-9 4c2.6-.6 5-1.8 7.7-2.6-.3.8-.8 1-1.3 1.2-4.8 2.6-10 3.9-15.3 5-5.3 1-10.5 2.8-15.9 4-7 1.5-14 2.7-21.2 3.2-3.8.4-7.7.4-11.5.2-1.5 0-2.7.3-3.7 1.5-2.3 2.8-5 5.3-7.7 7.7-.5.4-1 1-1.6-.1l-.4.3c-.6.4-1.3.9-2 .4-.8-.6-.6-1.4-.3-2.2.6-2.1 1.8-4 2.9-6l1.7-2.8a64.1 64.1 0 01-9 5.7c-1 .4-1.8 1-2.9 1-1 .1-1.6-.4-1.4-1.5 0-.7.3-1.4.7-2 .8-1.4 1.4-3 3-4.1l-4.5-.4c-10.3-.4-20.5-1.5-30.5-3.8-5-1.2-9.9-2-14.7-3.6-2.1-.7-4.2-1.6-6.2-2.6-.3-.2-.8-.3-1-1 2.7.7 5.1 2 7.8 2.5l-8.5-3.7c-1.6-.7-3.2-1.6-4.6-2.5-4-2.6-6.4-6.2-7-11l-.6-4a16 16 0 001 8.1c.2.3.3.7 0 .8-.4.2-.6-.1-.7-.4a9.7 9.7 0 01-1.3-4 25 25 0 012.6-15.2c.3-.7.7-1.3 1.4-1.7.4-.2.8-.6 1.3-.1-1.5 2.2-2.2 4.7-3 7.2 2.2-3.6 5-6.6 8.9-8.6 3.8-2 8-3 12.3-3.7 6.5-1 13-1.1 19.7-.3h1.4a15 15 0 01-2.2-2.4c-.6-.9-1-1.8-.4-3-1.1-.8-1.9-1.8-1-3.3.2-.4-.1-.5-.3-.8-.5-.5-1-1.1-1.3-1.9-.4-1-.4-2 .4-2.8-1.5-1.9-2-3.8-.3-5.8-2.4-3-2.6-4.4-.8-5.5l-2.6-7.7-.4-1.2c-.1-.4-.2-.8.3-1 .4-.3.7.1.8.5l.3.5c.2-1-.4-1.6-.9-2.2.7-1.1 1.7-1.2 2.7-1.2h20.7c-1.3-5 0-9.5 2.6-13.8.3-.6.7-1.7 1.5-1.3.7.5-.1 1.3-.4 1.8a30.5 30.5 0 00-3 10c0 1.1 0 2.2.5 3.3h5.4l42-.1c1 0 1.3-.4 1.7-1.2.7-1.9 1.4-3.8.9-5.8-.1-.4-.2-.7 0-1 .7-.2.8.3 1 .7.8 1.7.5 3.4-.3 5l-1 2.2 2-.1c1-.3 1.9-.1 2.8-.1.4 0 .8 0 1 .5.2.5-.2.8-.5 1-.8.8-1.8.8-2.7.8H87.8l-33-.1h-8.5c0 .5.4.5.7.7l37.4 21c1.5.9 2.6.8 4.2 0 8.2-4.7 16.5-9.2 24.7-13.8l2.8-1.7.7-.4c.6-.3 1.3-.6 1.6 0 .3.6-.4 1-.9 1.1l-11.2 6.2-18 9.8c-1.2.7-2.1.7-3.5 0C75 170 64.8 164.6 55 159l-10-5.7c-.3-.2-.6-.4-1-.4h-3.6c.2.4.6.5 1 .7 13.5 7.8 27.2 15.3 40.6 23.2l4.8 2.8c.4.2.7.3 1.1 0 8.5-5.3 17.3-10.2 25.9-15.3l4.7-2.9c.6-.4 1.2-.6 1.9-.3 0 .7-.4.9-.8 1-9.7 5.5-19 11.6-28.7 17.4-2.4 1.5-4.2 1.7-7 .1L44.5 157l-1-.6c-.2.5 0 .8.2 1 1.5 4.6 3.2 9 4.4 13.6 1.4 5.2 3.7 10 5 15 0 .6.4 1.2.2 1.8-.7 0-.8-.7-1-1-1.1-2.3-1.6-4.7-2.5-7L49 178c-1 1.2-2.3.7-3.5.5l2.3 2c.7.7 1.8 1.3 1.3 2.6l.1.3c1 1.3 1 1.3-.4 2 1.1 4.4 2.1 8.8 4 13.1l10.5.2 29.4.8 20.1.3 5.6.2c1.6 0 2.8-1 3.4-2.3 1-2.5 1.3-5 2-7.6.3-1.5.7-3 .8-4.6-.5 0-1 .1-1.4-.3-.5.5-.3 1.4-1 1.7-.6-.1-.4-.6-.4-1 .6-3 1.4-6 2.2-9l2.8-11.3c.9-.2 1 .1.9.9l-2 7.7v.7c1.3-.8 2.4-1.8 3.3-3 .6-.7.6-1.7.4-2.7-.1-1 .3-2 .6-3.1.1-.6 1-.3 1.3-.8a14 14 0 01-9.8-3.8c-1.8-1.8-3-4-3.4-6.5-1.1-5.2 1-12.2 8.3-15.7-.3-.6 0-1 .4-1.6zm-34 85.5c-3.4-1.8-6.6-3.7-10-5.3-9.5-4.7-19.3-9-28.8-14-8-4-16.4-6.2-25.3-6.5-4.7-.1-9.6-.3-13.9 2.5-.3-.7 0-1.1.5-1.5 1.3-1 2.8-1.7 4.5-2A60.6 60.6 0 0150 200c.2-.5.6-.9 1-1.1-.6-3-1.9-5.7-2.6-8.5-2.6-.4-5.1-.6-7.7-.8-6.8-.4-13.5-.2-20.1 1.4-5.2 1.3-10 3.4-13.6 7.7-2.6 3-3.6 6.3-3.2 10.3.7 4.9 2.6 9 7 11.5l2.7 1.4c11.7 5.4 23.7 9.5 36.5 11.2 6.2.9 12.4 1.5 18.6 1.2 4.4-.1 8.7-.6 13-.6 1.8 0 3-.6 4.2-2.2 2-3 4.5-5.7 6.9-8.5zm5.8 11l2 .2a109.6 109.6 0 0038.1-4.5c7.4-2.3 14.6-4.9 21.5-8.3 4.5-2.2 7.6-5.5 8.4-10.8.5-3.5.7-6.9-1.4-9.9-2.2-3.2-5-5.8-8.7-7.5-4.4-2-9-3-13.9-3.5-5.7-.5-11.4-.4-17 .2-2.1.2-2.1.2-2.6 2.2l-.4 1.2-1.5 6.4h.2c.3 0 .5-.2.8-.3 9-3.2 18.2-4.7 27.8-3.4 2 .2 4 .8 5.6 2.2.5.4.9.8.4 1.6a11.2 11.2 0 00-5.2-2.1 58 58 0 00-32.7 5.5c-8 4-16 8-24.2 11.6a148 148 0 00-7.8 3.8l6.9 3.6c2 1 4 2 5.3 4-.5.1-.6.6-.7 1-.3.6-.2 1.3-.2 2 0 1.6-.3 3.2-.7 4.8zm-41.3-30.5l2.2 1.1 26 12.6c.3.2.6.2 1 0l3-1.2 23.8-11.4c.3-.1.7-.2.7-.6-1.1 0-55.4-.6-56.7-.5zm86.6-53c.1-2-.5-3.9-1.5-5.6-2.4-4.3-7.8-6.5-12.2-5a12.7 12.7 0 00-8.8 9.4 10.8 10.8 0 0011 13.4c6.4-.4 11.5-5.8 11.5-12.3zM51.5 200c-.1.4.3.6.6.9 1 .8 2.2.8 3.4.7 9.9 0 19.7.3 29.5.5l30.6.6c1.6 0 2.8-.7 4.1-1.4-.3-.3-.6-.2-.9-.2-10.5-.1-21.1-.5-31.7-.6-11.8-.2-23.7-.2-35.6-.5zM48.3 176c-.6-2.4-1.5-4.4-2.2-6.6l-3.9-12.6c-.4-1.4-1-2.1-2.4-2.6a198.1 198.1 0 014.8 15.5c.2 1 .9 2 .2 3.2l3.5 3zm68.1 59.9l-4.3.2-7.7.5-8.9.4c-.5 0-.9 0-.9-.7l3.8-.3c-1.5-.4-3-.4-4.6-.8-.2 0-.4 0-.5.2l-2.4 2.9c8.7 0 17.2-.7 25.5-2.4zM48 177.4c-2-2.7-5.5-4.2-6.7-7.8-1.1 1.4-1.2 2.4-.3 3.7 1.3 2 3 3.3 5.2 4.2.5.2 1.1.5 1.8-.1zm83.5-7.7c-1 2.4-2.7 4-4.7 5.5l-1.3 1.3c-.3.3-.6.6-.4 1.2h.5a10 10 0 006.6-5.1c.5-1 .3-2-.7-3zM78.2 247c.8-.6 1.9-1 2-2 .1-.8.5-1.3 1-1.8 3.3-3.8 6.8-7.4 10-11.3l1.1-1.4c-2.3 1.9-4.3 4-6.3 6.3-1.9 2-3.6 4.3-5.5 6.2a10.9 10.9 0 00-2.3 4zm-36.8-72c-.9 2.3 2.9 6 6.5 6.9-2.4-2.2-4.9-4-6.5-6.9zm90 0c-1.5 3-4 4.7-6.3 6.8 2.5-.8 4.5-2.1 6-4.2.5-.7 1-1.4.3-2.5zm-88.6 5.4c-.3.7-.3 1.1.1 1.5a8.4 8.4 0 006 2.3c-2-1.7-4.3-2.2-6-3.8zm81.2 3.8c2.3-.1 4.2-.7 5.7-2.1.5-.5.7-1 .3-1.7-1.8 1.6-4 2.1-6 3.8zm-33.4 46.4c1.9-1.7 4-3.2 5.4-5.4-2.4 1.2-3.8 3.4-5.4 5.4zM47 188.5c-1.3-1.3-1.8-3.3-3.3-4.4.4 2 1.7 3.4 3.3 4.4zm78.9-.1c1.7-.9 3.3-3.1 3.2-4.6-1.5 1.4-2 3.3-3.2 4.6zm-36.1 40.3c1.6-1.4 3-3 4.7-4.2a2 2 0 00-1.1-.5l-3.6 4.7zm37.6-50.5c-1 .2-1.8.5-2.7.4-.2.8-.5 1.5-.5 2.4l2.9-2.4.3-.4zm-29.6 55.4c-2 0-2-.1-1.5-2.3-.7.9-1.3 1.6-1.8 2.7 1.2-.3 2.3.5 3.3-.4zm-22.1 2.2c1.3.3 2.6.8 3.8-.6-1.3.2-2.6.2-3.8.6zM40 164.6c-.5 1.3.1 2.1 1 3l-1-3zm40 72.3a8.5 8.5 0 00-3.9 2.5l4-2.5z" fill="#59C48D"/>
  <path d="M72.9 115.5c-2.6 1.2-5 3-7 4.9a61.8 61.8 0 00-16.7 24.4l-1.2 4.5-.2.7c-.1.3-.3.5-.6.4-.3-.1-.3-.4-.3-.6l.5-2.1c-.4 0-.3.7-.8.6-.4-.2-.2-.6-.1-1 1-4 2.6-8 4.7-11.7l.7-1.2c-1.6-.6-1.8-1.4-1.4-4.7-1.4.1-2.7.3-4-.3-1.5-.7-2-1.9-2.2-3.5-1.2.1-2.5.3-3.7 0-3.4-.9-5.2-3.1-5.9-6.5a10.2 10.2 0 016.9-12c3-1 3.3-2.7 1.7-5.3-1-1.7-2.6-3-4.2-4.2-1-.7-1.9-1.4-2.7-2.2-2.3-2-3-4.7-2.2-7.6 1-3.7 3-6.6 6-9l2.5-2c4.1-3.2 6.6-7.3 7.6-12.4.9-4.4 2-8.8 3.8-13a22 22 0 018.1-10.2c1.5-1 3.1-1.8 5-1.6.5 0 1 0 1.2.4 0 .5-.4.5-.6.5-4.6 1.1-7.5 4.3-9.9 8-2 3.3-3.1 7-4.1 10.8-.7 2.3-1.2 4.5-1.7 6.8a19 19 0 01-7.2 10.9l-4.3 3.2c-2.7 2.3-4.4 5.1-5 8.5-.4 2 .1 3.6 1.3 5 1 1.2 2.2 2 3.4 3 1.8 1.6 3.5 3.2 4.5 5.4 1.4 2.8.7 4.8-2.2 6a9.9 9.9 0 00-5.6 4.9c-1.6 3.5-.7 8.2 2.1 10.3 1.3 1 2.8 1.5 4.5 1.4.6-.1.9-.3 1-.8.4-1 .9-1.9 1.7-2.5.5-.4 1.1-.6 1.6-.2.6.4.2 1 0 1.4-.2.5-.5 1.1-1 1.4-1 .7-1.2 1.6-.8 2.7.3 1.2 1.3 1.7 2.4 1.9a4 4 0 002.2-.2c.8-.3 1 0 1 1l-.1 2.2c0 .7.2 1.2.8 1.6a60.6 60.6 0 0118.9-20c.7-.5.8-.5 1.6-.4-.6 1-1.7 1.2-2.5 2.3l1.5-.8a7.3 7.3 0 014.4-1.3c.4 0 .6-.2.8-.4 2-1.4 2.5-3.4 2.5-5.7 0-2-.7-3.1-3-3.8a24.8 24.8 0 01-16.2-14.8c-1-2.5-1.4-5.2-2-7.8-.9.7-1.9 4.2-1.7 6.3a12 12 0 002.4 6.4c-2.6-.6-3.9-5-3.2-10-2.5 2.3-2.7 6.9-.4 9.5 1 1 2.1 2 3.2 2.8a12 12 0 014.8 7.4c.3 1.7.4 3.3-.8 4.8-.2.2-.3.6-.8.5-.3-.3 0-.5.2-.7.7-1.2 1-2.4.8-3.7-.4-2.8-1.7-5-3.8-6.7l-3.3-2.6c-3.5-2.9-4.3-6.7-2.1-10.7 1.2-2.4 3-4.2 4.8-6.1 1.4-1.5 3-3 4.2-4.6a15 15 0 002.2-13.5c-1-3.7-1.5-7.3-.4-11 .4-1.4.7-1.8 1.5-2.1.2.2 0 .3 0 .6-2 6.7-.9 12.8 4.2 17.9a35.2 35.2 0 0011 7c-3-3.6-4.5-8-5.7-12.4-.5-2.2-1.7-4.2-1.8-6.5-.1-1.2-.3-2.5 0-3.7.1-.2.2-.4.6-.5.2.9.1 1.8.3 2.6 1.4 6.7 5 11.5 11 14.6C89 68.1 92.6 69.1 96 70c3.2.8 6.4 1.5 8.7 4.1-.7-2.6-2.2-4.8-3.7-7 .8-.3 1.1.1 1.4.4 4.3 4.8 6.4 10.3 4.9 16.9-.7 2.9-1.8 5.5-2.9 8.2-1 2.4-1.8 4.8-1.3 7.4.4 1.6 1 3.1 2 4.4l4.7 6.2a6.8 6.8 0 001.5-5.4c-.2-2-1.2-3.5-2.7-5 .9 0 1.3.5 1.6.9a8.4 8.4 0 011.2 10 6.8 6.8 0 01-4.2 2.9c-1.4.4-2.8.7-4.1 1.2-2 .6-3.6 1.7-3.9 4-.3 2.3.6 4.3 2.6 5.6a9.4 9.4 0 008.4 1c.7-.2.7-.6.7-1 .2-2.2.8-4 2.8-5.2.3-.2.6-.5 1-.3.1.2 0 .4-.1.5a7.2 7.2 0 000 10.3c.8.7 1.6 1.4 2.7 1.4.2 0 .6 0 .6.3 0 1.7 1.3 2.7 2.2 4 .7 1 .8 2 1.3 3 .3.6-.4 1-.3 1.7l5.4-3.6c.3.2.2.5.3.7a22 22 0 00-9 9.4l-.2.8c-.2.2-.4.3-.7.3-.3 0-.4-.3-.4-.6l.3-1.3c.6-1.6 1.6-3 2.8-4.3.5-.4.6-.7.4-1.3a64 64 0 00-3.4-7.8c0-.2-.2-.4-.4-.5-2.8-.9-4.2-3-5.1-5.5l-.2-.2a12 12 0 01-8 .4c-3.8-1.1-6-5-5-8.8a5.8 5.8 0 012.8-3.7l1.1-.6-.1-.1c-3.2-1-3.7-1-5.9 1.6-2 2.4-4 5-6.4 7.2-1.6 1.5-2.7 2-5.2.2-1.5-1-2.6-2.6-3.6-4l-1.8-2.8c-1.3-1.7-2.5-2-4.4-1.3-.6.2-1.1.3-1.5.8zm-6.3-52v1.1a15 15 0 01-2.7 9.8 39.9 39.9 0 01-3.7 4.2 2 2 0 00-.6 1.3c-.1 1.6.5 3 .9 4.4 1.1 5 3.5 9.2 7.4 12.6 4.9 4.3 10.7 6.8 17.2 6.9 5.8 0 11-2.6 15.7-5.7.3-.2.5-.5.6-.8.3-2.5 1.3-4.7 2.4-6.8 1.6-3 2.6-6.3 2.6-9.8 0-1.6-.2-3.3-1.4-4.6-2-2.2-4.2-3.8-7-4.5L91.2 70A26 26 0 0181 65.9l-3.3-3c1 2.5 2.3 4.9 3.7 7.2 1.5 2.3 3.4 4.1 6.3 5.2A3 3 0 0185 75c-1.6-.8-3.3-1.2-4.9-2-5-2.2-10-4.7-13.6-9.5zM78 113.7c1 .8 1.7 1.8 2.4 2.8L83 120c.8 1 1.6 1.9 2.7 2.5.9.5 1.7.5 2.5-.3 2.4-2.4 4.4-5.3 6.7-7.9-2.7-1.3-3-3.8-3.5-6.3-3.4 2.9-6.8 3-10.4.4-1 3.6-1.2 4-2.8 5.3zm30.9-2.4c-.8-1.2-1.8-2.2-2.7-3.2-1.2-1.4-2.5-2.7-3.4-4.3-1-1.4-1.5-3-1.7-4.8-2.5 1.9-5.2 2.8-7.8 4.1-.3.2-.6.3-.6.7.1 2.7 0 5.3 1.2 7.8.3.7.8 1.4 1.6 1.7 2.5-1.5 5.3-1.3 6.6.5 2.2-1 4.7-1 6.8-2.5z" fill="#59C48D"/>
  <path d="M128 128.9c.3 1.4.4 2.8 0 4.1a4.8 4.8 0 01-2.5 3.1c-1 .5-2.5.1-3-.7-.1-.2-.3-.5 0-.8.2-.3.4 0 .7.2.8.5 1.5.4 2.3-.2 1.3-1 1.9-2.9 1.3-4.7a8 8 0 00-1-2.1c-.1-.3-.2-.7.1-1 .4-.3.7-.1 1 .1 1.8 1.3 5.4.8 6.8-1.1 3.3-4.6 1.8-11-2.5-13.5-3.4-2-4-4.8-1.7-8.2 1-1.7 2.4-3.1 4-4.4 3-2.4 3.7-5.7 3.7-9.4 0-4.2-2-7-5.5-9.1-3.3-1.9-6-4.4-8.7-7.1-1.6-1.7-2.5-3.9-3.5-6l-1.9-4.3c-.1-.3-.3-.6.2-.8.7.2.7 1.1 1.4 1.7-1.1-4.5-1.6-9-3.5-13.3a19 19 0 00-7.1-7.7A45.6 45.6 0 0091.3 37a28 28 0 00-16.7 1.6c-1.3.6-2.6 1-4 1.4-.3.1-.6.4-1 .2-.1-.7.5-.9 1-1 7-3.9 14.4-5.2 22.2-3.3 4.6 1.1 9 2.6 13.3 4.8 7 3.7 11.7 9 12.9 17 .4 3 1.2 5.8 1.8 8.7.3 1.3.9 2.5 1.4 3.7 1 2.3 2.6 4.2 4.9 5.4a48 48 0 017.7 5.1c2.9 2.4 5 5.3 5.3 9.2a10 10 0 01-.6 4.9 23 23 0 01-3.2 5.5 52.1 52.1 0 00-3.8 5.5c-.8 1.5-1 3-.5 4.7.2.7.6 1.3 1.2 1.7 3.7 3 5 9.6 1.5 14.4-1.3 1.9-3.3 2.5-5.5 2.3h-.9-.3zm2.9-18.6c-1.1-4 1.5-6.4 3.2-9.3a16 16 0 00-4.3 5.1c-.8 1.7-.5 3 1 4.2zm6.2-25.4c.8 1.6 1 3.3 1.2 5 .1 1.8-.1 3.5-.4 5.4 2-3.1 1.5-7.8-.8-10.4z" fill="#1CAF63"/>
  <path d="M144.6 174.4c.2-3 .6-5.9 1.7-8.7 2.3-5.6 6.2-9.5 12-11.3.7-.2 1-.5 1.2-1.2.8-3.7 3-6.6 5.6-9.2 3-3 6.4-5.4 10-7.5 2.4-1.3 4.7-2.6 6.8-4.3 3.6-2.7 6.2-6 7.8-10.4.3.5.2 1 0 1.5a21 21 0 01-6.6 9.7c-2.6 2.3-5.7 4-8.6 5.8-3.6 2.3-7 4.9-9.7 8.1-1.6 2-2.9 4.1-3.6 6.7l3.4-.3c3.2-.3 6.3.2 9.2 1.3 3.8 1.5 5.8 4.5 5.5 7.9a9.2 9.2 0 01-7 7.5c-3.5.7-6.5-.2-9-2.7-2.8-2.6-4.2-6-4.3-9.8v-2c-2.7.8-5 2-7 3.8-3.4 3-5.1 7-6 11.4-.3 1.2-.4 2.5-.6 3.8 0 .7-.3 1.2-1.2.9-1-.3-1.9 0-2.7.6-1.6 1.2-3 2.7-4 4.4-.3.4-.5 1-.4 1.5 0 .2 0 .5-.4.5-.3 0-.4-.2-.5-.4-.1-.3-.2-.6-.1-.8.3-2.7 4-6.5 6.6-6.9.7 0 1.3.2 2 .1zm21.7-20c-1.5 0-3 .2-4.5.4-.8.1-1 .5-1 1.2 0 1.3 0 2.5.2 3.8.6 3 2 5.7 4.6 7.6a7.8 7.8 0 0011.2-1.8c2.3-3.4 1.5-7.2-2-9.2-2.7-1.5-5.5-2-8.5-2z" fill="#ACE1C6"/>
  <path d="M82.8 41.8c1.6-.9 3.2-1.2 4.8-1.3 10.3-.7 17.2 4.4 22 13a29 29 0 013.2 11.4c.6 5.7 1 11.4 2.5 16.9 2 7.7 6.5 13.6 13 18 .3.3.7.5.5 1-.3.5-.7.2-1.1 0-2.2-1-4-2.7-5.7-4.3a32.1 32.1 0 01-9.2-18.6c-.8-5-1.3-9.9-2.1-14.8-1.2-6.5-4-12.3-9.2-16.6-3.1-2.6-6.9-3.8-10.9-4.2-2.1-.3-4.3-.3-6.4 0-.5 0-1 .1-1.4-.5z" fill="#59C48D"/>
  <path d="M119 197.2l1.9-8c.1-.6.3-1.2 1.2-.7l-1 4-1.3 5c-.1.5-.3.6-.9.5h-4.7l-29.9-.7c-9.4-.2-18.8-.6-28.1-.6-.5 0-1 0-1.1-.6l-2.6-8.2c.8-.1 1 .3 1.2.9l2 6c.2.7.5 1 1.4 1l21.6.5 35.5.7 4.8.2z" fill="#ACE1C6"/>
  <path d="M95.5 121.8c-2.2 1.8-4 3.9-6.3 5.5l-1.8 1.4c-1.7 1.1-3 1-4.4-.5l-6-6.7c-1.3-1.5-2.4-3.1-3.5-4.7-.3-.4-.6-.8-.6-1.3.5 0 .7.3 1 .6 3 3.5 6.2 6.8 9 10.4l.6.7c1.3 1.5 2 1.6 3.6.3 2.7-2.2 5.6-4.1 8.2-6.5.1-.1.3-.3.6-.3.4.4-.2.6-.2.9l-.2.2z" fill="#ACE1C6"/>
  <path d="M192.7 84c-.7 0-.8-.3-.9-.6-1.4-5.1-5-8.4-9.1-11.4l-2.6-1.7c-.3-.3-.7-.5-.8-1 .2-.5.5-.2.8-.1 5 2 8.8 5.2 11.4 9.8a9.8 9.8 0 011.2 5z" fill="#ACE1C6"/>
  <path d="M139.6 136.1a136.4 136.4 0 012-6.1c.1-.3.3-.6.7-.5.4.1.2.5.2.7-.4 1.6-.5 3.2-1.1 4.7-.2.6-.4 1.1-.9 1.6-.1.2-.4.4-.7.3-.3-.2-.2-.4-.2-.7z" fill="#ACE1C6"/>
  <path d="M144.7 139.4c-.1 0-.3 0-.3-.2-.2-.2 0-.3 0-.4.5-.5 1-1 1.5-1.3 1.4-1 3-2 4.3-3.1.1-.1.3-.3.5 0 .2 0 0 .3 0 .4a6 6 0 01-.5.5c-1.5 1.3-2.9 2.6-4.5 3.7l-1 .4z" fill="#ACE1C6"/>
  <path d="M142.1 137.1l.4-.7a21 21 0 014.1-4.1c.2-.2.4-.4.6-.1.2.2 0 .4-.2.5-1 1-2 2.3-3 3.6-.3.4-.6.9-1 1.2-.2.2-.5.2-.7.1-.2 0-.2-.3-.2-.5z" fill="#ACE1C6"/>
  <path d="M170.6 212.6c.3-1.2.7-2 .7-3.1-.3-4.6-1.5-9-4-12.9-.2-.3-.5-.6-.5-1 .5 0 .6.4.8.7 2.4 3.3 3.7 7 4.1 11.1a9 9 0 01-.2 4c-.2.5-.2.9-.9 1.2z" fill="#ACE1C6"/>
  <path d="M117.8 128.7c.8 2.6 2.6 3.8 5 4.2-.6.9-1.8.8-3.4-.3-1.8-1.1-2.5-2.6-1.6-3.9z" fill="#ACE1C6"/>
  <path d="M110 181.4c0 .5 0 1.2-.7 1.2-.6 0-.7-.4-.7-1s.2-1.2 1-1.2c.6 0 .4.6.5 1z" fill="#ACE1C6"/>
  <path d="M110.6 181.5c0-.6.2-1.2 1-1.3.3 0 .6.3.5.7-.2.5-.2 1.3-.9 1.5-.6.1-.5-.5-.6-1z" fill="#ACE1C6"/>
  <path d="M146.9 199h-3.7c-1 0-2.2-.2-2.9.3-1.7 1.2-3.8 1.3-5.6 2a262 262 0 00-29.7 12.3c-3.2 1.5-6.5 2.8-9.6 4.5-.2.2-.5.3-.7 0-.2-.4.1-.6.4-.7 2-1.3 4.2-2.3 6.3-3.4a299.4 299.4 0 0118.8-8.6 98.8 98.8 0 00-15.2 6.3c-.2-.8.4-1 .7-1a135 135 0 0131-11.5c3.3-.7 6.5-1 9.8-.6.2 0 .3 0 .4.4z" fill="#ACE1C6"/>
  <path d="M127 191.8c-.3 1.6-1 3.3-1.7 4.9-.1.2-.3.4-.6.3-.3-.1-.3-.4-.3-.6.5-1.8.9-3.5 1.6-5.2.1-.3.3-.5.6-.4.5.1.3.5.4 1z" fill="#ACE1C6"/>
  <path d="M93.3 92.5c-.4-1.1-1-2.2-.2-3.3.3 0 .4.2.5.3.5 1.7 1.7 3 3 4.1.4.3.8.6.5 1-.4.5-.9.3-1.3 0l-1.7-1-2 1.5a12 12 0 01-12.5 1.4 7 7 0 01-2.2-1.5c-.4-.4-.7-.8-.3-1.5 5.6 3.9 11 3.5 16.2-1z" fill="#59C48D"/>
  <path d="M94.6 79.2c0-1.5 1-2.7 2.2-2.7 2 0 3.8 1.6 3.7 3.5 0 1.7-1.1 2.8-2.7 2.8-1.8 0-3.2-1.6-3.2-3.6z" fill="#1CAF63"/>
  <path d="M72 79.5c0-2 1-3.1 2.6-3.1 1.8 0 3.1 1.2 3.1 3s-1 3-2.4 3c-1.8 0-3.3-1.3-3.3-3z" fill="#1CAF63"/>
  <path d="M85.9 92c-1.3-.1-2.2-.3-2.6-1.3-.2-.2-.2-.6 0-.8.4-.3.6 0 .9.2.8.7 1.7.7 2.7.1.4-.2.8-.6 1.2 0 .3.5-.2.9-.6 1.1-.6.5-1.2.7-1.6.7z" fill="#59C48D"/>
  <path d="M150.8 9c-.1.8-.6 1.2-1.5.7a6.7 6.7 0 01-2.8-4.5c-.2-1 .6-1.6 1.3-1.2.7.3 3 4 3 5z" fill="#ACE1C6"/>
  <path d="M167.2 3.6c-.2 1 .1 2.8-1.3 2.9-1.5 0-1.3-1.7-1.3-2.9l.3-2.6c.1-.5.4-1 1-1 .5 0 .8.5.9 1 .1.8.4 1.7.4 2.6z" fill="#ACE1C6"/>
  <path d="M182.7 8.5c0 2-1.2 3.6-2.3 3.6-.8 0-1.2-.6-1.1-1.5 0-1 1.6-2.8 2.5-2.8.7 0 .9.4 1 .7z" fill="#ACE1C6"/>
  <path d="M163.8 62.9c13.3 0 24.1-11.6 24.1-25.8 0-14.2-10.8-25.7-24.1-25.7S139.7 22.9 139.7 37s10.8 25.8 24 25.8z" fill="#FFC48A"/>
  <path d="M154.4 57.5c-1 0-1.8-.2-2.2-.7-.7-.7-.6-1.8-.4-3v-1c.2-2.4.5-4.9 1-7.3.9-4 1.4-6.2 3.1-6.2 1 0 1.6.7 2 1.3h.1a9.2 9.2 0 007.8 3c1.3 0 2.2.1 2.5.7.3.5.3 1 0 1.8-3.7 7.4-11.1 11.4-14 11.4zm1.6-17.3c-1 0-1.5 1.8-2.3 5.5a48.3 48.3 0 00-1 8.3c-.2 1-.3 1.8.1 2.2.3.3.8.5 1.6.5v.4-.4c2.6 0 9.6-4 13-11 .2-.4.3-.7.2-1-.2-.2-.8-.2-1.7-.2a10 10 0 01-8.5-3.3h-.1c-.4-.5-.8-1-1.3-1z" fill="#22543D"/>
  <path d="M148.6 48.2c-1 0-2-.1-3-.4-1.3-.4-2-1-2-1.9-.2-.7.4-1.4.8-1.9 2-2.5 3-5.8 2.5-9v-.5c-.2-1.2-.5-2.4.2-3.5.6-1 1.8-1.5 3-1.4 1 0 2 .4 3 1.1l1.3 1 1.1.8c1.7 1.2 3.7 1.9 5.7 2 1 0 2 .2 2.6 1 .3.6.3 1.4 0 2.3-1 2-2.4 3.8-4.3 5l-.5-.8c1.8-1 3.1-2.6 4-4.5.2-.7.2-1.2 0-1.5-.3-.5-1-.6-1.8-.6-2.3-.2-4.4-1-6.2-2.2l-1.1-.8-1.3-1c-.9-.6-1.7-1-2.5-1-1 0-1.8.4-2.2 1-.5.8-.4 2-.2 3l.1.5c.5 3.4-.5 7-2.7 9.6-.4.5-.7 1-.7 1.4 0 .6 1 1 1.4 1 2.3.7 4.9.5 7-.5l.4.8c-1.4.7-3 1-4.6 1z" fill="#22543D"/>
  <path d="M142.4 35.7l-1.7-.2c-1-.2-1.5-.6-1.9-1.2-.3-.5-.4-1.1-.2-1.8l.7-1.6.1-.2c1.8-3.2 2.2-5.8 2.4-7.7.1-.9.2-1.7.5-2.3.3-.9 1.1-1.9 2.3-2 1.7-.3 3 1.2 3.7 2.2l.4.4c1.8 2 4.5 3.1 7.2 3 .4 0 .9 0 1.3.2.5.4.7 1 .6 2a7 7 0 01-4.7 5.2l-.2-.9a6 6 0 004-4.5c0-.2.1-.8-.2-1l-.7-.1c-3 .1-6-1-8-3.3l-.4-.5c-.7-.8-1.7-2-3-1.9-.7.2-1.2.9-1.5 1.5l-.4 2.2c-.3 1.9-.6 4.5-2.5 8l-.1.2c-.3.4-.5.8-.6 1.3-.2.5-.1.9 0 1.2.3.3.7.6 1.4.7 2 .5 4.3 0 6-1.2l.5.7a8.6 8.6 0 01-5 1.6z" fill="#22543D"/>
  <path d="M171.6 51.6c-1.5 0-2.1-.6-2.4-1-.5-.8-.3-1.7-.1-2.4 1-5.2 1-5.2 1.2-5.6.1-.1.3-.4.8-2.2l.4-1c.2-.6.5-1.3.5-1.8v-.1l.7-1.6c.4-.6 1-1 1.6-1 .6-.2 1.2 0 1.6.3l8.5 3.6c.4.2 1 .4 1.4 1 .4 1-.4 2.7-.8 3.4a17 17 0 01-13.4 8.4zm1.3-14c0 .7-.3 1.5-.6 2.2l-.3.8c-.6 2-.8 2.2-.9 2.5-.1.2-.2.4-1.2 5.3-.1.7-.2 1.3 0 1.7.3.4.9.7 1.7.7h.6c6-.7 10.2-4.8 12-8 .8-1.5 1-2.3.8-2.6-.2-.3-.5-.4-1-.6l-8.4-3.6c-.4-.2-.8-.4-1.2-.3-.3 0-.7.3-1 .7l-.5 1.3z" fill="#22543D"/>
  <path d="M166.6 41c-1 0-1.6-.2-2-.8-.8-1-.2-2.3.1-3 1.6-3.7 2.6-7.7 3.1-11.7 0-.5.2-1.5 1-1.8.9-.3 1.6.4 2 .7 2.4 2.2 5.6 3.4 8.9 3.4.9 0 2 0 2.6.7.4.6.4 1.5 0 2.6a11 11 0 01-5.4 5.4l-.4-.8c2.2-1 4-2.8 5-5 .2-.5.4-1.2 0-1.6-.3-.5-1-.5-1.8-.5-3.5.1-7-1.2-9.5-3.5-.4-.4-.8-.7-1-.6-.4.1-.5.7-.5 1-.5 4.2-1.6 8.2-3.2 12-.3.9-.6 1.7-.2 2.2.3.4.9.5 1.8.4 1.6-.2 3.3-.7 4.7-1.5l.4.7a13 13 0 01-5.6 1.7z" fill="#22543D"/>
  <path d="M161.3 33.6c-1.2 0-2-.4-2.5-1-.5-.8-.3-1.7-.2-2.3l2.1-13.1c.1-.5.2-1.3.8-1.8.7-.6 1.7-.5 2.5-.2l1.2 1c1.3 1 3.3 2.7 6.7 2.5h.3c.9-.1 2-.2 2.7.8.3.5.3 1 .3 1.5-.2 2-1 4-2.4 5.5l-.7-.6c1.3-1.4 2-3.1 2.2-5l-.1-1c-.4-.5-1-.4-2-.4h-.2c-3.8.3-6-1.6-7.4-2.7l-1-.8c-.5-.2-1.1-.3-1.5 0-.3.3-.4.8-.5 1.3l-2.1 13.1c-.1.7-.2 1.3 0 1.7.4.6 1.3.6 2 .6 2-.1 4-.7 5.7-1.8l.4.7a12.4 12.4 0 01-6.3 2z" fill="#22543D"/>
  <path d="M164 64.2c-1 0-2.3 0-3.4-.2a33.3 33.3 0 01-19.1-9.5l-.3-.3c-4.8-5-7.3-12.3-6.7-19.7A27.5 27.5 0 01157 9a26.8 26.8 0 0124.2 6.4l-.6.6a26 26 0 00-23.4-6.2 26.7 26.7 0 00-21.8 24.7 24.6 24.6 0 006.5 19.1l.2.3 1 1c5 4.5 11.3 7.4 17.6 8.2 6.6.8 13.4-.8 18.6-4.4 4-2.8 7.1-6.7 8.9-11.2a28.7 28.7 0 00-1.3-23.2l.8-.3a29.6 29.6 0 011.3 23.8c-1.8 4.6-5 8.8-9.2 11.6-4.4 3.1-10 4.8-15.7 4.8z" fill="#22543D"/>
  <path d="M154 23c-1.1 0-2-.2-2.7-.5a4 4 0 01-2-2.6c-.6-2.2 1.1-5 3.5-5.6 1.3-.3 2.9 0 4.2.8 2 1.3 2.8 3.4 2 5.2-.3 1-1.1 1.7-2.2 2.2-.7.3-1.8.5-2.9.5zm-.1-8c-.3 0-.6 0-.9.2-1.9.4-3.3 2.7-2.9 4.5a3 3 0 001.6 2c.5.3 1.3.4 2.2.4 1 0 2-.2 2.6-.4.8-.4 1.4-1 1.7-1.7.5-1.2.2-3-1.7-4.2-.8-.5-1.7-.8-2.6-.8z" fill="#22543D"/>
  <path d="M181.4 28.7l-.3-.8a3.8 3.8 0 002.5-2.8c.2-1.3-.3-2.7-1.3-3.6l-.8-.3c-1.3-.2-2.8-.3-3.8.5-1 .7-1.5 2-1.2 3.2.2.7.6 1.3 1.3 1.8.5.5 1.2.8 2 1.1l-.2.9c-1-.4-1.8-.8-2.4-1.3a4.4 4.4 0 01-1.6-2.3c-.3-1.5.3-3.2 1.6-4.1 1.2-1 3-.9 4.4-.7.4 0 .8.2 1.2.6 1.3 1 2 2.7 1.7 4.3-.3 1.6-1.6 3-3.1 3.5z" fill="#22543D"/>
  <path d="M164.8 59c-.6 0-1.1 0-1.6-.3-2-.7-3.1-2.7-2.8-4.6l.9.1c-.3 1.5.7 3.2 2.2 3.7 1.4.6 3.2.1 4.3-1a4 4 0 001-4.2c-.7-1.4-2.3-2.3-3.7-1.9l-.2-.8c1.8-.5 3.9.5 4.6 2.3.7 1.7.3 3.8-1 5.2-1 1-2.4 1.5-3.7 1.5z" fill="#22543D"/>
  <path d="M142.1 45.7c-.7 0-1.4-.2-2-.6-1.4-.9-2.1-2.5-1.9-4.1A4.7 4.7 0 01144 37a3 3 0 011.9 1.6c.3.6.3 1.3 0 2 .5.2.9.7.9 1.3 0 .2-.2.4-.4.5-.3 0-.5-.2-.5-.5s-.3-.7-.7-.7a.4.4 0 01-.3-.7c.3-.4.4-1 .2-1.6a2 2 0 00-1.3-1c-.6-.2-1.2-.2-1.8 0a3.8 3.8 0 00-2.8 3c-.2 1.4.3 2.7 1.4 3.4a3 3 0 003.7-.4h.6c.2.2.2.5 0 .7-.7.6-1.7 1-2.7 1z" fill="#22543D"/>
  <path d="M184 39.6a.4.4 0 010-.9c.8-.1 1.5-.7 1.7-1.5l.1-.2-.4-.2-.3-.2c-.4-.2-.7-.6-.5-1.1.2-.7.8-.7 1.2-.7h.3c.3 0 .4-.2.5-.4 0-.2 0-.4-.2-.5l-.3-.3c-.3-.2-.7-.4-.8-.9-.2-.6.2-1 .5-1.3.4-.4.5-.5.1-1l-.2-.1-.5-.6c-.3-.4-.3-1 0-1.5l.4-.2.2-.1-.2-.5v-.1c-.4-1-.3-2.1.6-2.6.4-.2.7-.5.8-1 0-.3 0-.8-.2-1.1l-.7-.8c-.7-.6-1.5-1.3-1.2-2.4 0-.2.2-.4.3-.5l.2-.5-.5-.3c-.2 0-.4-.2-.5-.3-.5-.3-.7-.8-.8-1.3l-.3-.7-.6-.2h-.3c-.4 0-.8.2-1.3.5-.7.3-1.6.8-2.4.2l-.7-1-.5-.6-.6.1c-.3.2-.8.3-1.2.1-.6-.2-.7-.8-.7-1.2l-.3-.6h-.2l-.5.3-.3.6-.4.7c-.4.6-1.2 1-1.9.6l-.3-.4h-.1a9.5 9.5 0 00-3-1.4c-.2 0-.4 0-.4.2 0 .1 0 .3.3.5l.5.6c.2.5.1 1-.3 1.5-.3.4-1 .5-1.4.3-.3-.1-1-.5-1-1.7v-.3c0-.6 0-1.4-.3-1.8-.1-.3-.4-.5-.8-.6-.3 0-.7 0-1 .2l-.4.5c-.3.3-.7.6-1.2.8h-.8c-.4 0-.6 0-1.1.8-.6.8-.6 1-.5 1.5v.7c0 .5-.3 1.1-1 1.2a.4.4 0 01-.5-.3c0-.3.1-.5.4-.5l.2-.5v-.5c0-.6 0-1 .7-2.1.7-1 1.2-1.1 1.8-1.1h.6c.3-.1.5-.4.7-.6l.7-.7c.5-.3 1-.4 1.6-.2.6.1 1.1.5 1.4 1 .3.5.4 1.4.4 2.1v.4c0 .5.2.8.4.9l.5-.1c.1-.1.2-.3.1-.5l-.3-.4c-.3-.3-.6-.7-.6-1.2 0-.6.6-1 1.2-1 .9 0 3.2 1.1 3.7 1.6l.1.1.2.2c.2.1.5 0 .7-.3l.3-.6.4-.8c.3-.3.7-.6 1.1-.6.3 0 .6 0 .9.2.4.3.4.7.5 1.1 0 .3.1.6.3.6h.5c.3-.2.7-.3 1-.2.6 0 1 .6 1.2 1l.4.7c.4.2.8 0 1.5-.3.5-.3 1.1-.6 1.8-.5.5-.2 1.1 0 1.4.4l.5 1 .5.9.4.2c.3.2.8.4 1 .9 0 .4-.2.8-.4 1.1l-.2.4c-.1.5.3.9 1 1.5l.9 1a2.4 2.4 0 01-1 3.3c-.4.2-.5 1-.2 1.4v.2c.2.3.4.8.1 1.2l-.5.4-.1.1v.4l.4.4.2.3c1 1 .3 1.7 0 2.1-.3.3-.4.4-.4.6l.4.3c.2 0 .4.2.5.3.4.4.6 1 .4 1.5-.1.5-.6.9-1 1h-1l.2.2.2.1c.2 0 .3.2.5.3.2.2.4.5.4.8 0 .1 0 .3-.2.4a3 3 0 01-2.4 2.1z" fill="#22543D"/>
  <path d="M165 61.7c-.5 0-.9-.3-1.2-.6-.2-.2-.4-.4-.6-.4l-.6.3c-.4.3-.9.6-1.5.4-.5-.2-.7-.6-.9-1-.1-.4-.2-.6-.4-.6l-.4.2-.7.2c-.6.1-1.1-.2-1.5-.5a3 3 0 00-.5-.4c-.4-.2-.9-.2-1.3-.1h-.7c-1.5 0-2.9-.9-4-1.5-.7-.5-1.7-1.2-1.6-2.3l.2-.7v-.4c.1-.2 0-.5-.2-.7-.3-.2-.5-.3-.8-.2a.4.4 0 01-.5-.5c0-.3-.2-.7-.6-1a2 2 0 00-1.2-.6h-.4c-.4 0-1.1 0-1.5-.6l-.1-.8v-.3l-.5.2c-.4.3-1.1.7-1.7 0-.3-.3-.2-.8 0-1v-.4h-.4c-.3 0-.7.1-1-.2-.5-.5-.3-1-.1-1.4v-.5c0-.1-.1-.2-.5-.3-.3-.1-.7-.2-1-.6a1 1 0 010-1c.1-.3.4-.4.7-.4.3 0 .4.1.4.4 0 .2-.1.4-.3.4v.1l.6.3c.3.1.9.3 1 1 .1.3 0 .7-.1 1-.2.3-.2.3-.1.4h.3c.4 0 .8-.1 1.2.3.3.3.2.7 0 1v.4l.5-.2c.4-.3 1-.7 1.6-.2.3.3.3.7.3 1v.4l.7.1h.4c.6 0 1.3.3 1.9.8.3.4.6.8.7 1.3.4 0 .7.2 1 .4.5.4.7 1 .7 1.5l-.2.6-.1.5c0 .6.6 1 1.2 1.4 1 .7 2.3 1.4 3.5 1.4h.6c.6 0 1.2 0 1.7.2l.7.5c.4.2.6.4.9.4l.4-.2c.3-.2.6-.4 1-.2.6 0 .8.6 1 1 .1.3.2.5.4.6.1 0 .3 0 .6-.3.4-.2.8-.5 1.3-.5s.8.4 1.1.7c.4.3.5.4.7.3l.2-.4.5-.7c.4-.3.8-.3 1-.3h.4c.4-.1.8-.5 1.2-.8.3-.4.8-.8 1.4-1 .6-.2 1.5 0 2 .4.5 0 .8-.5 1.4-1.2.8-1 1.8-2.3 4-2l.3.1c.3 0 .7.2.9 0l.2-.5c0-.3.2-.7.5-1 .4-.4 1-.3 1.3-.3h.7c.4 0 .6-.6.6-1l-.1-1c-.2-1-.5-2.4.6-3.2l1-.3c.5-.1.7-.2 1-1 .6-1.8.6-1.9.4-2l-.4-.5c-.2-.3-.2-.8 0-1 0-.3.2-.5.5-.5s.5.1.5.4c0 .2-.1.4-.3.4v.2l.3.3c.6.6.6 1-.2 3-.4 1.3-1 1.4-1.6 1.5-.3 0-.5.1-.7.3-.6.3-.5 1.1-.3 2.2l.2 1.1c0 .8-.4 1.8-1.3 2h-1.6c-.2.1-.2.4-.3.6 0 .3-.1.7-.4 1-.5.4-1.2.3-1.7.2h-.2c-1.7-.4-2.4.6-3.2 1.6-.6.8-1.3 1.6-2.5 1.5a.4.4 0 01-.4-.3c0-.1-.6-.3-1-.1-.4 0-.7.4-1 .7-.5.4-1 .9-1.6 1h-.5l-.5.1-.3.5c-.1.3-.3.6-.7.8l-.4.1z" fill="#22543D"/>
  <path d="M140.4 38.8h-.2c-.2-.2-.4-.2-.7-.3h-.2c-.9-.3-1.3-.9-1.3-1.3s.2-.8.6-1h.2V36a2 2 0 01-.4-.2c-.4-.4-.5-1-.3-1.4.2-.5.7-.8 1.2-.8.3 0 .4.3.4.5 0 .3-.2.4-.5.4l-.3.2.1.4.2.1.3.2c.3.3.5.8.2 1.2l-.6.3h-.2v.1c0 .2.2.4.7.5h.2l.9.4a.4.4 0 01-.3.8z" fill="#22543D"/>
  <path d="M145.7 19.6a.4.4 0 01-.4-.3c0-.4-.2-.9 0-1.4.1-.3.4-.6.7-.7l.8.1.3.2.1.1.1-.3c.2-.3.6-1.2 1.7-.8l1.1.4c.2 0 .4.3.3.6-.1.2-.4.3-.6.2l-1.1-.4c-.3-.1-.4 0-.6.4 0 .3-.4 1-1.2.8l-.4-.4h-.1l-.3.1v.9c.1.2 0 .4-.3.5z" fill="#22543D"/>
  <path d="M173.7 51.2l-.2-.1-2.4-2.4v-.3h.3l2.4 2.4a.2.2 0 01-.1.4z" fill="#FFC48A"/>
  <path d="M175.4 50.5l-.1-.1-2.6-2.6v-.3h.3l2.6 2.6a.2.2 0 01-.2.4z" fill="#FFC48A"/>
  <path d="M177 49.5h-.2l-2.4-2.4v-.3h.3l2.4 2.4v.3h-.2z" fill="#FFC48A"/>
  <path d="M179.2 48.4h-.1l-2.6-2.6v-.3h.3l2.6 2.6a.2.2 0 01-.2.3z" fill="#FFC48A"/>
  <path d="M180.9 47l-.2-.1-2-2c-.1-.2-.1-.3 0-.4h.3l2 2c.1.1.1.3 0 .4h-.1z" fill="#FFC48A"/>
  <path d="M182 45.4h-.1l-1.7-1.6v-.4h.3l1.7 1.7v.3h-.2z" fill="#FFC48A"/>
  <path d="M183 44l-1.5-1.5v-.3h.3l1.4 1.4v.3l-.1.1z" fill="#FFC48A"/>
  <path d="M184.2 42.2h-.2l-1-1V41h.4l1 1v.3h-.2z" fill="#FFC48A"/>
  <path d="M184.6 41.4h-.2l-.6-.7v-.3h.3l.7.7a.2.2 0 01-.2.3z" fill="#FFC48A"/>
  <path d="M171.4 50.7h-.2l-1-1v-.3h.3l1 1v.3h-.1z" fill="#FFC48A"/>
  <path d="M170.2 50.6h-.2v-.3l2.1-2.1h.3v.3l-2 2-.2.1z" fill="#FFC48A"/>
  <path d="M172.2 51l-.2-.1v-.3l3.6-3.6h.3c.1.1.1.3 0 .4l-3.5 3.5h-.2z" fill="#FFC48A"/>
  <path d="M175.8 50.1a.2.2 0 01-.2-.3l4.5-4.4h.3v.3L176 50h-.2z" fill="#FFC48A"/>
  <path d="M176.7 47l-.1-.1v-.3l2.3-2.3h.3v.3l-2.3 2.3h-.2z" fill="#FFC48A"/>
  <path d="M181 44.9a.2.2 0 01-.1-.4l2.6-2.6h.3v.3l-2.6 2.6h-.2z" fill="#FFC48A"/>
  <path d="M161.4 53.6h-.1l-3.4-3.4V50h.3l3.4 3.4v.3h-.2z" fill="#FFC48A"/>
  <path d="M162.3 52.6h-.2l-3-3v-.4h.4l3 3v.3h-.2z" fill="#FFC48A"/>
  <path d="M163.9 50.9h-.2l-2.5-2.6V48h.3l2.5 2.5v.3h-.1z" fill="#FFC48A"/>
  <path d="M165.2 49.4h-.2l-2-2c-.1-.1-.1-.3 0-.4h.3l2 2c.1.2.1.3 0 .4h-.1z" fill="#FFC48A"/>
  <path d="M166.7 47.8h-.2l-1.6-1.6V46h.4l1.5 1.6v.3h-.1z" fill="#FFC48A"/>
  <path d="M159.6 54.5h-.2l-3.1-3.2V51h.3l3.1 3.1a.2.2 0 01-.1.4z" fill="#FFC48A"/>
  <path d="M158 55.4h-.2l-2.7-2.8v-.3h.3l2.8 2.7a.2.2 0 01-.2.4z" fill="#FFC48A"/>
  <path d="M155.9 56.4l-.2-.1-2-2V54h.3l2 2v.3h-.1z" fill="#FFC48A"/>
  <path d="M154.2 56.4h-.2l-1.2-1.2V55h.3l1.2 1.2a.2.2 0 01-.1.3z" fill="#FFC48A"/>
  <path d="M153.3 56.4h-.1V56l2.6-2.7h.3v.3l-2.6 2.7h-.2z" fill="#FFC48A"/>
  <path d="M155.3 56.7h-.2v-.4l4.3-4.3h.3v.3l-4.3 4.3-.1.1z" fill="#FFC48A"/>
  <path d="M156.7 52.3l-.1-.1v-.3l2.4-2.4h.3v.3l-2.4 2.4h-.2z" fill="#FFC48A"/>
  <path d="M159.6 54.6l-.2-.1v-.3l3.1-3.1h.3v.3l-3 3-.2.2z" fill="#FFC48A"/>
  <path d="M161.8 50.2a.2.2 0 01-.2-.4l3.4-3.3h.3v.3l-3.4 3.4h-.1z" fill="#FFC48A"/>
  <path d="M164.3 49.3l-.2-.1v-.3l1.2-1.2h.3v.3l-1.2 1.2h-.1z" fill="#FFC48A"/>
  <path d="M159.4 50.8a.2.2 0 01-.1-.4l1.3-1.3c.1-.1.3-.1.4 0v.3l-1.4 1.3h-.2z" fill="#FFC48A"/>
  <path d="M147.5 46.9l-.1-.1-1.6-1.6V45h.3l1.6 1.6a.2.2 0 01-.2.4z" fill="#FFC48A"/>
  <path d="M150 47.7h-.2l-3.2-3.2v-.3h.4l3.1 3.1a.2.2 0 01-.2.4z" fill="#FFC48A"/>
  <path d="M152.1 46.9h-.1l-3.3-3.3v-.3h.3l3.3 3.2a.2.2 0 01-.2.4z" fill="#FFC48A"/>
  <path d="M153.1 44.4h-.1l-2.1-2.1V42h.3l2 2a.2.2 0 010 .4z" fill="#FFC48A"/>
  <path d="M154 42.2h-.1l-1.5-1.5v-.3h.3l1.5 1.4c.1.1.1.3 0 .4h-.1z" fill="#FFC48A"/>
  <path d="M155.2 40.4h-.2l-1.2-1.2v-.3h.3l1.2 1.2a.2.2 0 01-.1.3z" fill="#FFC48A"/>
  <path d="M159.7 41.6l-.2-.1-3.2-3.3V38h.3l3.2 3.3a.2.2 0 01-.1.4z" fill="#FFC48A"/>
  <path d="M161.4 40.4h-.2l-2.5-2.6v-.3h.3l2.6 2.6v.3h-.2z" fill="#FFC48A"/>
  <path d="M162 38.9l-.2-.1-1.6-1.6V37h.3l1.6 1.6v.3h-.2z" fill="#FFC48A"/>
  <path d="M163.2 37.7l-.1-.1-1.3-1.3V36h.3l1.3 1.3v.3h-.2z" fill="#FFC48A"/>
  <path d="M145.8 46.5h-.1v-.3l2.5-2.5h.3v.3l-2.5 2.5h-.2z" fill="#FFC48A"/>
  <path d="M147.8 47.3h-.2V47l3.7-3.7h.3v.4l-3.7 3.6h-.1z" fill="#FFC48A"/>
  <path d="M150.3 47.7l-.2-.1v-.3l3-2.9h.2v.3l-2.9 2.9h-.1z" fill="#FFC48A"/>
  <path d="M152 42.3h-.1c-.1-.2-.1-.3 0-.4l1.6-1.6h.3v.3l-1.6 1.6h-.2z" fill="#FFC48A"/>
  <path d="M156.9 40l-.2-.1v-.3l2.2-2.2a.2.2 0 01.3.3L157 40h-.1z" fill="#FFC48A"/>
  <path d="M158.5 41.2h-.1c-.1-.1-.1-.3 0-.4l2.2-2.2a.2.2 0 01.3.3l-2.2 2.3h-.2z" fill="#FFC48A"/>
  <path d="M161.3 37.8h-.2v-.3l1-1h.3v.3l-1 1h-.1z" fill="#FFC48A"/>
  <path d="M154 30.8h-.1l-3.4-3.4v-.3h.4l3.3 3.3v.4h-.2z" fill="#FFC48A"/>
  <path d="M154.8 29.5l-.1-.1-2.7-2.7v-.3h.3L155 29a.2.2 0 01-.2.4z" fill="#FFC48A"/>
  <path d="M156.5 28l-.2-.1-1.7-1.7v-.3h.3l1.7 1.7a.2.2 0 01-.1.3z" fill="#FFC48A"/>
  <path d="M150.3 30l-.2-.1-1.6-1.6V28h.3l1.6 1.6v.3h-.1z" fill="#FFC48A"/>
  <path d="M148.1 30.8l-.1-.1-1.6-1.5v-.4h.3l1.6 1.6v.3h-.2z" fill="#FFC48A"/>
  <path d="M146.7 32.8h-.1l-2.3-2.3v-.3h.3l2.3 2.2a.2.2 0 01-.2.4z" fill="#FFC48A"/>
  <path d="M145.7 34.3l-.2-.1-2.5-2.5v-.3h.3l2.5 2.5v.3h-.1z" fill="#FFC48A"/>
  <path d="M143.7 34.5h-.2l-1.6-1.7v-.3h.3l1.6 1.6v.3l-.1.1z" fill="#FFC48A"/>
  <path d="M141.4 34.6h-.1l-1.4-1.5v-.3h.3l1.4 1.4a.2.2 0 01-.2.4z" fill="#59C48D"/>
  <path d="M140.1 34.4h-.1V34l2.2-2.3h.3v.3l-2.2 2.3h-.2z" fill="#59C48D"/>
  <path d="M142.1 34.7h-.1v-.3l3.4-3.5h.4v.3l-3.5 3.5h-.2z" fill="#FFC48A"/>
  <path d="M146.5 30.3a.2.2 0 01-.2-.4l1.8-1.8h.4v.3l-1.9 1.8h-.1z" fill="#FFC48A"/>
  <path d="M150 29.6a.2.2 0 01-.2-.4l2.5-2.4h.3v.3l-2.4 2.4-.2.1z" fill="#FFC48A"/>
  <path d="M152.6 30h-.2v-.3L155 27h.3v.3l-2.6 2.6h-.1z" fill="#FFC48A"/>
  <path d="M154.3 26.9h-.2v-.4l1.2-1.2h.3c.1.1.1.3 0 .4l-1.2 1.1h-.1z" fill="#FFC48A"/>
  <path d="M167.2 30.6h-.2l-3.3-3.4V27h.3l3.4 3.3a.2.2 0 01-.2.4z" fill="#FFC48A"/>
  <path d="M168 28.3h-.2l-2-2.2c-.2 0-.2-.2 0-.3h.2l2.1 2.1a.2.2 0 01-.1.4z" fill="#FFC48A"/>
  <path d="M168 26.5h-.1l-1.5-1.5v-.3h.3l1.5 1.4a.2.2 0 01-.2.4z" fill="#FFC48A"/>
  <path d="M165.4 31.2h-.1l-2.8-2.8v-.3h.4l2.7 2.7v.3l-.2.1z" fill="#FFC48A"/>
  <path d="M163.5 31.5h-.2l-1.8-1.8v-.3h.3l1.8 1.8a.2.2 0 01-.1.3z" fill="#FFC48A"/>
  <path d="M160.8 32.5h-.1l-1.5-1.5c-.1-.1-.1-.3 0-.4h.3l1.5 1.6v.3h-.2z" fill="#FFC48A"/>
  <path d="M159.8 32.3h-.2v-.4l3-2.8c0-.1.1-.1.2 0v.3l-2.9 2.9h-.1z" fill="#FFC48A"/>
  <path d="M161.7 32.6h-.1v-.3l3.5-3.5h.3v.3l-3.5 3.5h-.2z" fill="#FFC48A"/>
  <path d="M163 32.5h-.1l-2.2-2.2V30h.3l2.2 2.1v.4h-.2z" fill="#FFC48A"/>
  <path d="M164.3 28.5l-.2-.1V28l2.2-2.2h.3v.3l-2.2 2.2h-.1z" fill="#FFC48A"/>
  <path d="M165.9 30.7h-.2v-.3L168 28h.3v.3l-2.3 2.3h-.1z" fill="#FFC48A"/>
  <path d="M171.4 24.4h-.2V24l1.8-1.8h.3v.3l-1.8 1.8h-.1z" fill="#FFC48A"/>
  <path d="M171.2 22.4h-.1c-.1-.2-.1-.3 0-.4l2-1.9h.2v.3l-2 2z" fill="#FFC48A"/>
  <path d="M172.6 25l-.2-.1-1.9-2v-.2c.1-.1.3-.1.4 0l1.9 1.9v.3h-.2z" fill="#FFC48A"/>
  <path d="M174 23.6h-.1l-2-2.1c-.2-.1-.2-.3 0-.4h.2l2.1 2.1v.3h-.1z" fill="#FFC48A"/>
  <path d="M174 22l-.1-.1-.9-1v-.2h.3l1 .9v.3h-.2z" fill="#FFC48A"/>
  <path d="M168.4 40l-.2-.1-1.6-1.6V38h.3l1.6 1.6a.2.2 0 01-.1.4z" fill="#FFC48A"/>
  <path d="M169.7 39.7h-.1l-2-2v-.3h.3l2 2a.2.2 0 01-.2.3z" fill="#FFC48A"/>
  <path d="M171.3 38.6h-.2l-1.7-1.8v-.3h.3l1.7 1.7a.2.2 0 01-.1.4z" fill="#FFC48A"/>
  <path d="M172.5 37.4h-.1l-1.5-1.6v-.3h.3l1.5 1.5a.2.2 0 01-.2.4z" fill="#FFC48A"/>
  <path d="M174 35.7h-.2l-1.1-1.1v-.3h.3l1 1a.2.2 0 010 .4z" fill="#FFC48A"/>
  <path d="M175.9 35.1h-.2l-1.2-1.3v-.3h.3l1.3 1.3a.2.2 0 01-.2.3z" fill="#FFC48A"/>
  <path d="M178 34.9l-.1-.1-1.4-1.4v-.3h.3l1.4 1.4v.3h-.2z" fill="#FFC48A"/>
  <path d="M179 33.7l-1.4-1.4V32h.3l1.3 1.3a.2.2 0 01-.1.4z" fill="#FFC48A"/>
  <path d="M180.2 33h-.2l-1.5-1.5v-.3c.1-.1.3-.1.4 0l1.4 1.4a.2.2 0 01-.1.4z" fill="#FFC48A"/>
  <path d="M180.9 31.6h-.2l-1-1.1v-.3h.3l1 1a.2.2 0 01-.1.4z" fill="#FFC48A"/>
  <path d="M167 40l-.2-.1-1-1v-.3h.3l1 1a.2.2 0 01-.2.3z" fill="#FFC48A"/>
  <path d="M165.7 40.3h-.2v-.4l2.2-2.2h.3v.3l-2.2 2.2h-.1z" fill="#FFC48A"/>
  <path d="M168.1 40.2h-.1v-.3l2.6-2.7a.2.2 0 01.3.3l-2.6 2.7h-.2z" fill="#FFC48A"/>
  <path d="M171 36.4h-.1c-.1-.2-.1-.3 0-.4l1.8-1.7h.3v.3l-1.8 1.7h-.2z" fill="#FFC48A"/>
  <path d="M174.8 34.8l-.2-.1v-.3l1.9-1.9h.3v.3l-1.9 1.9h-.1z" fill="#FFC48A"/>
  <path d="M176.6 35.1h-.2v-.4l2.7-2.6h.3v.3l-2.7 2.6-.1.1z" fill="#FFC48A"/>
  <path d="M179.2 31.9h-.1c-.1-.2-.1-.3 0-.4l1.2-1.2h.3v.3l-1.2 1.2h-.2z" fill="#FFC48A"/>
  <path d="M155.8 20.4c-.4 0-.7-.2-1-.5-.3-.4-.4-.9-.6-1.3v-.3c-.3-.7-.6-1.7 0-2.1l.4-.2c.6 0 1.4.7 1.6 1 .5.5.8 1.3.7 2 0 .6-.3 1.1-.7 1.3a1 1 0 01-.4 0zm-1.2-4l-.2.1c-.3.2 0 1.3.2 1.7v.3l.5 1c.3.4.7.5 1 .4.2-.1.4-.6.4-1 0-.5-.2-1.2-.6-1.7-.3-.2-.9-.7-1.3-.7z" fill="#FFC48A"/>
  <path d="M152.1 21c-.8 0-1.3-.6-1.5-1.2-.2-.7 0-1.4.2-2l.6-.9.6-.2c.6 0 1 .6 1.5 1.6.2.6.2 1.2 0 1.7-.2.6-.8 1-1.4 1zm0-3.8h-.4l-.5.8c-.2.7-.3 1.2-.2 1.7.2.4.6 1 1 1l.1.1v-.2c.4 0 .8-.3 1-.7a2 2 0 000-1.4c-.4-.9-.8-1.3-1-1.3z" fill="#FFC48A"/>
  <path d="M140.5 41.7a.6.6 0 01-.6-.5c-.1-.6.5-1.9 1.4-2.4.5-.2 1-.3 1.4-.2.5.2.9.7.8 1.2 0 .3-.3.7-.7 1l-1.4.6-.4.2h-.5zm1.8-2.7c-.3 0-.5 0-.8.2-.7.4-1.3 1.5-1.1 2h.4l.4-.2a6 6 0 001.3-.6c.4-.2.6-.4.6-.7 0-.3-.2-.6-.5-.7h-.3z" fill="#FFC48A"/>
  <path d="M142.3 44.1c-.4 0-.8-.1-1.1-.4-.4-.2-.5-.5-.5-.8.1-.6 1-.9 1.8-1.1l.3-.1.5-.2c.3 0 .5.1.7.3 0 .1.2.4.1.6 0 .7-.4 1.3-1 1.6l-.8.1zm1-2.1h-.3l-.3.2c-.5.1-1.5.5-1.5.8l.2.4c.4.3 1 .4 1.5.2.4-.2.8-.7.8-1.2V42l-.3-.1z" fill="#FFC48A"/>
  <path d="M178.5 25a1 1 0 01-.6-.2c-.4-.3-.6-1-.3-1.5.3-.4.8-.6 1.2-.8h.1a7.2 7.2 0 011.7-.5c.2 0 .3 0 .5.2.2.1.3.5.2.8l-.4.6c-.5.5-1 .9-1.7 1.2a2 2 0 01-.7.2zm2-2.6h-.2l-1.2.5h-.1l-1 .6c-.2.3 0 .8.2 1l.9-.1a5 5 0 001.5-1.1l.3-.4-.1-.4h-.2z" fill="#FFC48A"/>
  <path d="M180.4 27h-.5c-.3-.2-.6-.4-.8-.8v-.6c.2-.3.7-.5 1.2-.8l.4-.2.5-.2c.3-.1.6 0 .8 0 .2.2.3.5.3.8l-.2.6c-.2.4-.5.7-.9 1l-.8.2zm1-2.2l-.5.2-.4.2-1 .6v.3c.1.2.4.4.6.4.2.1.6 0 .9-.1a2 2 0 00.8-1.3l-.1-.3h-.2z" fill="#FFC48A"/>
  <path d="M163 55.7h-.2a.8.8 0 01-.7-.4l-.2-.6v-1.3c0-.2.1-.2.3-.2 0 0 .2.1.1.2v1.2l.2.4.3.2h.2l1.8-1.2c.4-.2.6-.4.8-.7.1-.4-.1-.9-.4-1.1-.3-.2-.8-.3-1.4-.3 0 0-.2 0-.2-.2 0 0 0-.2.2-.2.6 0 1.2 0 1.6.3.6.4.8 1.1.6 1.6-.2.5-.6.7-1 1l-1.6 1c0 .2-.3.3-.5.3z" fill="#FFC48A"/>
  <path d="M165.5 57.2a3 3 0 01-1.3-.3c-.3 0-.6-.3-.6-.5 0-.3.3-.5.6-.7l1.2-.8.6-.4c.3-.2.7-.4 1.1-.4h.4c.5.2.7.7.7 1.3 0 .5-.4.9-.7 1.1-.5.5-1.3.7-2 .7zm-1.4-.8l.3.1c.8.5 2 .3 2.8-.3.2-.2.5-.5.5-.9 0-.3 0-.6-.3-.8-.4 0-.8.1-1.2.4l-.6.4-1.1.7-.4.4z" fill="#FFC48A"/>
  <path d="M141.5 40.3l-.2-.1v-.3h.5l-.1.3h-.2z" fill="#59C48D"/>
  <path d="M142.2 40h-.1a.2.2 0 01-.2-.3s0-.2.2-.2.3.1.3.2-.1.2-.3.2z" fill="#59C48D"/>
  <path d="M142.1 43.3s-.2 0-.2-.2c0 0 0-.2.2-.2l.3.1-.1.3h-.1z" fill="#59C48D"/>
  <path d="M143 43l-.2-.2c0-.2.1-.3.2-.3.2 0 .3.1.3.3l-.2.2z" fill="#FFC48A"/>
  <path d="M152 18.7a.2.2 0 01-.3-.2v-.2s0-.2.2-.2l.2.2v.2s0 .2-.2.2z" fill="#FFC48A"/>
  <path d="M152 19.6h-.2v-.4h.4v.3h-.2z" fill="#FFC48A"/>
  <path d="M155.1 17.9l-.1-.1c-.1-.2 0-.3 0-.4l.3.1v.4h-.2z" fill="#FFC48A"/>
  <path d="M155.6 18.8a.2.2 0 01-.2-.2l.2-.2c.1 0 .3 0 .3.2 0 .1-.1.2-.3.2z" fill="#FFC48A"/>
  <path d="M179 24c-.2 0-.3-.1-.3-.2s0-.2.2-.2c.1 0 .2 0 .2.2 0 .1 0 .2-.2.2z" fill="#FFC48A"/>
  <path d="M179.8 23.3a.2.2 0 01-.2-.2c0-.1 0-.2.2-.2.1 0 .2 0 .2.2 0 .1 0 .2-.2.2z" fill="#FFC48A"/>
  <path d="M180.4 26.5c-.2 0-.3-.1-.3-.2 0-.2.1-.3.3-.3l.2.2c0 .2-.1.3-.2.3z" fill="#FFC48A"/>
  <path d="M181.2 25.8l-.4-.3h.4v.3l-.2-.1.2.1z" fill="#FFC48A"/>
  <path d="M165.2 56.4l-.2-.2c0-.1 0-.2.2-.2.1 0 .2 0 .2.2 0 0 0 .2-.2.2z" fill="#FFC48A"/>
  <path d="M166.2 56l-.2-.2c0-.2.1-.3.2-.3l.2.2c0 .2 0 .3-.2.3z" fill="#FFC48A"/>
  <path d="M163.3 54h-.2v-.4l.3-.1h.3v.3l-.3.2h-.1z" fill="#FFC48A"/>
  <path d="M164.4 53.3l-.3-.2c0-.2.1-.3.2-.3.2 0 .3.1.3.3l-.2.2z" fill="#FFC48A"/>
  <path d="M192.4 110.8v-.3l.6-1c0-.2.2-.2.3-.1v.2l-.7 1.1c0 .1-.1.1-.2 0z" fill="#ACE1C6"/>
  <path d="M192.7 111.6c-.1 0-.1-.1 0-.2l.7-1.2a.2.2 0 11.3.2l-.8 1.2h-.2z" fill="#ACE1C6"/>
  <path d="M193.3 112c-.1 0-.1 0 0-.2l.4-.8h.2c.1 0 .1.1 0 .2l-.4.8c0 .1-.2.1-.2 0z" fill="#ACE1C6"/>
  <path d="M191.3 110.4v-.3l.5-.8c0-.1.2-.1.2 0l.1.2-.5.8h-.3z" fill="#ACE1C6"/>
  <path d="M190.1 110v-.2l.5-.7.2-.1s.1.2 0 .2l-.4.8h-.3z" fill="#ACE1C6"/>
  <path d="M188.8 110.2v-.3l.6-1a.2.2 0 01.3.2l-.6 1h-.3z" fill="#ACE1C6"/>
  <path d="M187.7 110.2l-.1-.2.7-1c0-.2.1-.2.2-.1 0 0 .1.1 0 .2l-.6 1-.2.1z" fill="#ACE1C6"/>
  <path d="M188.7 110.1l-1.4-.9a.2.2 0 01.2-.3l1.4 1v.2h-.2z" fill="#ACE1C6"/>
  <path d="M190.8 110.3l-1.5-1c-.1 0-.1-.1 0-.2 0 0 0-.1.1 0l1.6 1c.1 0 .1.1 0 .2h-.2z" fill="#ACE1C6"/>
  <path d="M193.2 110.8l-1.7-1v-.3c0-.1 0-.1.2 0l1.7 1a.2.2 0 01-.2.3z" fill="#ACE1C6"/>
  <path d="M193.6 112.1l-.9-.6v-.2h.2l.9.5v.2l-.2.1z" fill="#ACE1C6"/>
  <path d="M192.3 112.8l-.8-.5-.3-.3v-.2h.2l.3.3.7.4a.2.2 0 11-.1.3z" fill="#ACE1C6"/>
  <path d="M190.4 113l-1.4-.8v-.3h.2l1.4.9a.2.2 0 01-.2.2z" fill="#ACE1C6"/>
  <path d="M188.9 113.2l-1.6-1a.2.2 0 11.2-.3l1.6 1a.2.2 0 11-.2.3z" fill="#ACE1C6"/>
  <path d="M187.4 113.7l-1.5-1a.2.2 0 11.1-.3l1.6 1a.2.2 0 01-.2.3z" fill="#ACE1C6"/>
  <path d="M185.9 114l-1.6-1v-.2h.2l1.5 1a.2.2 0 11-.1.2z" fill="#ACE1C6"/>
  <path d="M184 114.1l-1.8-1.1c-.1 0-.1-.2 0-.2l.1-.1 1.9 1.2v.2h-.2z" fill="#ACE1C6"/>
  <path d="M182.9 114.5l-2.5-1.6a.2.2 0 11.2-.3l2.4 1.6a.2.2 0 11-.1.3z" fill="#ACE1C6"/>
  <path d="M181.3 114.5L179 113a.2.2 0 01.2-.3l2.2 1.4v.2s-.1.1-.2 0z" fill="#ACE1C6"/>
  <path d="M179.3 112.3l-.8-.5a.2.2 0 11.2-.3l.8.5a.2.2 0 01-.2.3z" fill="#ACE1C6"/>
  <path d="M180 111.7l-1-.6a.2.2 0 01.2-.2l1 .5a.2.2 0 11-.3.3z" fill="#ACE1C6"/>
  <path d="M178.8 112.5v-.2l.9-1.4c0-.1.1-.1.2 0v.2l-.8 1.4h-.3z" fill="#ACE1C6"/>
  <path d="M178.9 114s-.1 0 0-.1l1-1.7h.2s.1.1 0 .2l-1 1.6c0 .1-.1.1-.2 0z" fill="#ACE1C6"/>
  <path d="M179.7 114.8v-.2l1.2-2a.2.2 0 01.3.3l-1.2 1.9h-.3z" fill="#ACE1C6"/>
  <path d="M181.3 114.8v-.3l.9-1.4c0-.1.1-.1.2 0 0 0 .1 0 0 .2l-.9 1.4s-.1.1-.2 0z" fill="#ACE1C6"/>
  <path d="M182.9 114.5v-.3l.7-1.2h.2c.1 0 .1.1 0 .2l-.7 1.2c0 .1-.1.1-.2 0z" fill="#ACE1C6"/>
  <path d="M184.7 114.2v-.3l.6-.9a.2.2 0 01.3.2l-.6 1h-.3z" fill="#ACE1C6"/>
  <path d="M186.2 113.8v-.2l.6-1a.2.2 0 11.3.2l-.6 1h-.3z" fill="#ACE1C6"/>
  <path d="M188 113.5v-.3l.9-1.4c0-.1.1-.1.2 0 0 0 .1 0 0 .2l-.9 1.4c0 .1-.1.1-.2 0z" fill="#ACE1C6"/>
  <path d="M189.6 113.3v-.2l.7-1.1s.2-.1.2 0c.1 0 .1 0 0 .2l-.6 1c0 .2-.2.2-.3.1z" fill="#ACE1C6"/>
  <path d="M191.5 112.6v-.2l.3-.5a.2.2 0 01.3.2l-.3.5h-.3z" fill="#ACE1C6"/>
  <path d="M192.5 112.2l-.1-.2.2-.3a.2.2 0 11.3.2l-.2.2-.2.1z" fill="#ACE1C6"/>
  <path d="M204.2 107.6l-4.7-3v-.2h.2l4.7 3s.1 0 0 .2h-.2z" fill="#ACE1C6"/>
  <path d="M202.2 107.8l-2.9-1.8a.2.2 0 11.2-.3l2.9 1.8v.3h-.2z" fill="#ACE1C6"/>
  <path d="M202.3 107.4v-.3l1.1-1.8a.2.2 0 11.3.1l-1.2 2h-.2z" fill="#ACE1C6"/>
  <path d="M199.7 108.5v-.3l2.4-3.8a.2.2 0 01.3.2l-2.5 3.8c0 .1-.1.1-.2 0z" fill="#ACE1C6"/>
  <path d="M204.4 106.4v-.3h.1l1.5 1v.1c0 .1-.1.1-.2 0l-1.4-.8z" fill="#ACE1C6"/>
  <path d="M207.2 105.7l-1-.6v-.3h.1l1 .6c.1 0 .2.2.1.3h-.2z" fill="#ACE1C6"/>
  <path d="M194.5 112c-.9-.6-1.4-1.7-1.8-3.8-.2-1.8-.3-3.6.7-4.7.8-.8 2-.9 3-.9a70.7 70.7 0 0117.8 2.1c.7.2 1.7.4 2.3.7.3.2.5.5.5.8 0 .2-.1.5-.4.8-.3.3-.8.4-1 .5l-18.2 4.7c-1.3.3-2.2.3-3-.2zm21.6-6c-.4-.3-1.4-.5-2-.6h-.4a70 70 0 00-17.3-2.1c-1 0-1.9 0-2.5.7-.9.9-.7 2.5-.5 4 .3 2 .7 3 1.4 3.4.6.4 1.3.4 2.4.1l18.1-4.7c.3 0 .6-.1.8-.3l.3-.3-.3-.2z" fill="#ACE1C6"/>
  <path d="M178.7 114.9a2.3 2.3 0 01-.9-2.7c.3-.9 1-1.6 2-2.2a25 25 0 0113.7-.7.3.3 0 01-.2.7c-3.5-1-10.4-.9-13.1.6-.9.5-1.5 1.1-1.7 1.8a1.6 1.6 0 00.6 2c.9.5 1.6.4 9.5-1.2l6.8-1.4a.3.3 0 11.1.6l-6.8 1.4c-8.3 1.7-8.8 1.8-10 1.1z" fill="#ACE1C6"/>
  <path d="M200 96.2a5 5 0 01-2.4-3c-.8-4 4.8-8.3 8.9-9.2 1.6-.4 3-.2 4 .5 1.8 1 2.5 3.5 2.8 5.2.5 2.2.6 3.8.1 5-.5 1.6-1.8 2.6-3.9 3-3 .7-7 0-9.5-1.5zM210.1 85c-.9-.6-2-.7-3.5-.4-3.8.9-9 5-8.3 8.4.2 1 1 2 2 2.7 2.4 1.4 6.3 2 9.1 1.4 1.8-.4 3-1.3 3.4-2.6.4-1.1.3-2.6-.1-4.7-.6-2.5-1.4-4-2.6-4.8z" fill="#ACE1C6"/>
  <path d="M185.2 96.2a.3.3 0 010-.6l12.7-2.8a.3.3 0 01.1.6l-12.6 2.9h-.2z" fill="#ACE1C6"/>
  <path d="M175.8 100.3c-.6-.4-1-1-1.3-1.5-.6-1.5.3-3.4 2-4.3a7 7 0 013.6-.7l1.8.2H182.2c.2.1.3.2.3.4v.4l.1.1a34 34 0 01.8 4.1l-1.3.8c-.9.5-2 1-3.2 1.2-1.1.1-2.2-.1-3.1-.7zm6-5.6l-1.7-.3c-1.2 0-2.3.2-3.2.7-1.5.7-2.2 2.2-1.8 3.4.5 1.2 2.1 2 3.7 1.8 1.1-.1 2.1-.6 3-1l1-.6v-.3l-.3-1.1-.5-2.2V95l-.1-.3z" fill="#ACE1C6"/>
  <path d="M183.4 99.5c-.3-.2-.5-.5-.7-1.1l-.2-1.1-.5-2.2V95c-.1-.3-.2-.7 0-1 .2-.9 1-1 1.4-1 1.3 0 1.6.5 1.8 1.3l.8 3.2c.4 1.2 0 1.8-1.2 2-.5.2-1 .3-1.4 0zm.8-5.7h-.8c-.5 0-.8 0-.9.3v.7l.1.1.6 2.3.2 1c.2.9.3 1 1.2.7 1-.2 1-.5.8-1.2l-.8-3.2c-.2-.4-.2-.6-.4-.7z" fill="#ACE1C6"/>
  <path d="M203 95a.3.3 0 01.2-.6l6.8-1.6a.3.3 0 01.1.7l-6.8 1.5h-.3z" fill="#ACE1C6"/>
  <path d="M202.5 92.3a.3.3 0 010-.6l6.9-1.5a.3.3 0 01.1.7l-6.8 1.5h-.2z" fill="#ACE1C6"/>
  <path d="M201.9 89.7a.3.3 0 010-.6l7-1.5a.3.3 0 010 .6l-6.8 1.6h-.2z" fill="#ACE1C6"/>
  <path d="M180.8 96.5c-.1 0-.1-.2 0-.2l1-1.8h.3v.2l-1.1 1.7-.2.1z" fill="#ACE1C6"/>
  <path d="M181.1 97.4v-.2l1-1.7a.2.2 0 11.3.2l-1 1.7h-.3z" fill="#ACE1C6"/>
  <path d="M181.8 98.4c-.1 0-.2-.2-.1-.3l.7-1.1h.3v.2l-.7 1.1h-.3z" fill="#ACE1C6"/>
  <path d="M182.3 98.8s-.1-.1 0-.2l.4-.6a.2.2 0 11.2.1l-.4.7h-.2z" fill="#ACE1C6"/>
  <path d="M179.5 95.9c-.1 0-.1-.2 0-.2l.9-1.5c0-.1.1-.1.2 0v.2l-1 1.4c0 .1 0 .1-.1 0z" fill="#ACE1C6"/>
  <path d="M178.2 95.6v-.2l.9-1.5a.2.2 0 11.3.2l-1 1.5h-.2z" fill="#ACE1C6"/>
  <path d="M176.9 95.8c-.1 0-.2-.2-.1-.3l.8-1.2a.2.2 0 11.3.2l-.8 1.2s-.2.1-.2 0z" fill="#ACE1C6"/>
  <path d="M177.7 95.7l-1-.7c-.1 0-.1-.1 0-.2 0-.1 0-.1.2 0l1 .6s.1.1 0 .2c0 0-.1.1-.2 0z" fill="#ACE1C6"/>
  <path d="M179.8 95.3l-1.5-1a.2.2 0 01.1-.2l1.6 1v.2h-.2z" fill="#ACE1C6"/>
  <path d="M182 95.7l-1.5-1a.2.2 0 11.2-.2l1.4 1c.1 0 .1 0 0 .2h-.1z" fill="#ACE1C6"/>
  <path d="M182.2 97l-1.4-.8a.2.2 0 11.2-.3l1.3.8v.3h-.1z" fill="#ACE1C6"/>
  <path d="M182.7 98.3l-.9-.6a.2.2 0 01.2-.2l.9.5v.2l-.2.1z" fill="#ACE1C6"/>
  <path d="M198.9 94.8c-.1 0-.1-.1 0-.2l1.5-2.4s.1-.1.2 0v.2l-1.5 2.4h-.2z" fill="#ACE1C6"/>
  <path d="M199.6 95.3c-.1 0-.1-.1 0-.2l1.3-2.1c0-.1.1-.1.2 0v.1l-1.3 2.2h-.2z" fill="#ACE1C6"/>
  <path d="M200.7 95.9v-.2l1-1.7.3-.1v.2l-1 1.7h-.3z" fill="#ACE1C6"/>
  <path d="M201.7 96.4v-.2l.7-1.2s.2-.1.2 0c.1 0 .1.1 0 .2l-.6 1.1h-.3z" fill="#ACE1C6"/>
  <path d="M202.9 96.9v-.3l.6-1c0-.1.2-.2.3-.1v.2l-.7 1.1s-.1.1-.2 0z" fill="#ACE1C6"/>
  <path d="M204.3 97.2s-.1-.2 0-.2l.6-1s.1-.1.2 0v.2l-.6 1h-.2z" fill="#ACE1C6"/>
  <path d="M205.2 97.4v-.2l.6-1.1a.2.2 0 11.3.2l-.7 1c0 .1-.1.2-.2.1z" fill="#ACE1C6"/>
  <path d="M206.5 97.5l-.1-.2.4-.7a.2.2 0 11.3.2l-.4.7h-.2z" fill="#ACE1C6"/>
  <path d="M207.2 97.8v-.2l.6-1a.2.2 0 11.3.2l-.7 1s-.1.1-.2 0z" fill="#ACE1C6"/>
  <path d="M198.4 93.2V93l1.1-1.8h.2c.1 0 .1.1 0 .2l-1 1.8h-.3z" fill="#ACE1C6"/>
  <path d="M198.1 92.2V92l.7-1.2a.2.2 0 11.3.2l-.7 1.2h-.3z" fill="#ACE1C6"/>
  <path d="M200 92.3l-1.8-1.2V91h.2l1.8 1v.3s-.1.1-.2 0z" fill="#ACE1C6"/>
  <path d="M201 93.9l-3-2c-.1 0-.2 0-.1-.2h.2l3 1.9s.1.1 0 .2c0 0-.1.1-.2 0z" fill="#ACE1C6"/>
  <path d="M201.8 95.5l-3.6-2.3c-.1 0-.1-.1 0-.2 0-.1 0-.1.1 0l3.7 2.2v.3h-.2z" fill="#ACE1C6"/>
  <path d="M203 95.3l-1-.7c-.1 0-.2-.1-.1-.2h.2l1 .6v.2s-.1.1-.2 0z" fill="#ACE1C6"/>
  <path d="M204.5 97.1l-1.8-1v-.3h.2l1.7 1a.2.2 0 01-.1.3z" fill="#ACE1C6"/>
  <path d="M206.8 97.4l-1.6-1a.2.2 0 11.2-.3l1.5 1c.1 0 .1.2 0 .2 0 .1 0 .1-.1 0z" fill="#ACE1C6"/>
  <path d="M208 97.3l-.6-.4a.2.2 0 11.2-.3l.7.4v.2l-.2.1z" fill="#ACE1C6"/>
  <path d="M209.2 85.8c-.1 0-.1-.1 0-.2l.6-1c0-.2.2-.2.2-.1.1 0 .1.1 0 .2l-.6 1c0 .2-.2.2-.2.1z" fill="#ACE1C6"/>
  <path d="M210.1 86.4v-.2l.6-1h.2s.1.1 0 .2l-.6 1h-.2z" fill="#ACE1C6"/>
  <path d="M210.6 87.6v-.3l.8-1.2a.2.2 0 11.3.2l-.8 1.2h-.3z" fill="#ACE1C6"/>
  <path d="M211.2 88.9v-.3l.9-1.3s.1-.1.2 0v.2l-.8 1.3h-.3z" fill="#ACE1C6"/>
  <path d="M211.7 90c-.1 0-.1 0 0-.1l.8-1.4h.2s.1.1 0 .2L212 90c0 .1-.1.1-.2 0z" fill="#ACE1C6"/>
  <path d="M212.3 90.8s-.1-.1 0-.2l.6-1h.2s.1.1 0 .2l-.6 1s-.1.1-.2 0z" fill="#ACE1C6"/>
  <path d="M207.9 85.7v-.3l.7-1.2h.2s.1.1 0 .2l-.7 1.2c0 .1-.1.1-.2 0z" fill="#ACE1C6"/>
  <path d="M206.7 85.6v-.3l.6-1s.1-.1.2 0c0 0 .1.1 0 .2l-.6 1s-.2.1-.2 0z" fill="#ACE1C6"/>
  <path d="M205.5 85.8c-.1 0-.1-.1 0-.2l.5-1h.3v.2l-.6 1h-.2z" fill="#ACE1C6"/>
  <path d="M204 86.5v-.3l.6-1 .2-.1.1.2-.7 1.1c0 .1-.2.1-.2 0z" fill="#ACE1C6"/>
  <path d="M205 86.2l-1.1-.7c-.1 0-.2-.1-.1-.2 0 0 .2-.1.2 0l1.1.7a.2.2 0 11-.1.2z" fill="#ACE1C6"/>
  <path d="M206.7 85.9l-1.6-1v-.2l.2-.1 1.6 1a.2.2 0 01-.2.3z" fill="#ACE1C6"/>
  <path d="M208.5 85.7l-1.8-1.1s-.1-.2 0-.2c0-.1.1-.1.2 0l1.8 1a.2.2 0 11-.2.3z" fill="#ACE1C6"/>
  <path d="M210.5 86l-1.8-1v-.3s.2-.1.2 0l1.8 1a.2.2 0 11-.2.3z" fill="#ACE1C6"/>
  <path d="M212 87.5l-1.4-.8a.2.2 0 11.2-.3l1.3.8v.3h-.1z" fill="#ACE1C6"/>
  <path d="M212.6 89.1l-1.2-.7v-.2c0-.1.1-.1.2 0l1.1.6a.2.2 0 01-.1.3z" fill="#ACE1C6"/>
  <path d="M212.7 90.3l-.8-.5v-.2c0-.1.1-.1.2 0l.8.4a.2.2 0 01-.2.3z" fill="#ACE1C6"/>
</svg>
